<svg width="250" height="250" viewBox="0 0 250 250" fill="none" xmlns="http://www.w3.org/2000/svg">
<path d="M78.8421 26.6674C79.1918 26.6674 79.5723 26.6366 79.9838 26.5749C80.4158 26.4926 80.7346 26.3897 80.9403 26.2663V23.7977L78.7186 23.9829C78.1426 24.024 77.6695 24.1474 77.2992 24.3531C76.9289 24.5589 76.7438 24.8674 76.7438 25.2789C76.7438 25.6903 76.8981 26.0297 77.2066 26.2971C77.5358 26.544 78.0809 26.6674 78.8421 26.6674ZM78.5952 14.5406C79.7061 14.5406 80.7141 14.6537 81.6192 14.88C82.5449 15.1063 83.3266 15.456 83.9643 15.9291C84.6226 16.3817 85.1266 16.968 85.4763 17.688C85.8261 18.3874 86.0009 19.2206 86.0009 20.1874V27.0994C86.0009 27.6343 85.8466 28.0766 85.5381 28.4263C85.2501 28.7554 84.9003 29.0434 84.4889 29.2903C83.1518 30.0926 81.2695 30.4937 78.8421 30.4937C77.7518 30.4937 76.7643 30.3909 75.8798 30.1851C75.0158 29.9794 74.2649 29.6709 73.6272 29.2594C73.0101 28.848 72.5266 28.3234 72.1769 27.6857C71.8478 27.048 71.6832 26.3074 71.6832 25.464C71.6832 24.0446 72.1049 22.9543 72.9483 22.1931C73.7918 21.432 75.0981 20.9589 76.8672 20.7737L80.9095 20.3417V20.1257C80.9095 19.5291 80.6421 19.1074 80.1072 18.8606C79.5929 18.5931 78.8421 18.4594 77.8546 18.4594C77.0729 18.4594 76.3118 18.5417 75.5712 18.7063C74.8306 18.8709 74.1621 19.0766 73.5655 19.3234C73.2981 19.1383 73.0718 18.8606 72.8866 18.4903C72.7015 18.0994 72.6089 17.6983 72.6089 17.2869C72.6089 16.752 72.7323 16.3303 72.9792 16.0217C73.2466 15.6926 73.6478 15.4149 74.1826 15.1886C74.7792 14.9623 75.4786 14.7977 76.2809 14.6949C77.1038 14.592 77.8752 14.5406 78.5952 14.5406ZM98.7124 20.496C98.7124 19.8583 98.5272 19.3954 98.1569 19.1074C97.8072 18.7989 97.3238 18.6446 96.7067 18.6446C96.2952 18.6446 95.8838 18.696 95.4724 18.7989C95.0815 18.9017 94.7421 19.056 94.4541 19.2617V29.9691C94.2484 30.0309 93.9192 30.0926 93.4667 30.1543C93.0347 30.216 92.5821 30.2469 92.1089 30.2469C91.6564 30.2469 91.2449 30.216 90.8747 30.1543C90.5249 30.0926 90.2267 29.9691 89.9798 29.784C89.7329 29.5989 89.5375 29.352 89.3935 29.0434C89.2701 28.7143 89.2084 28.2926 89.2084 27.7783V18.5211C89.2084 17.9657 89.3215 17.5131 89.5478 17.1634C89.7947 16.8137 90.1238 16.4949 90.5352 16.2069C91.2347 15.7131 92.1089 15.312 93.1581 15.0034C94.2278 14.6949 95.4107 14.5406 96.7067 14.5406C99.0312 14.5406 100.821 15.0549 102.076 16.0834C103.331 17.0914 103.958 18.5006 103.958 20.3109V29.9691C103.752 30.0309 103.423 30.0926 102.971 30.1543C102.539 30.216 102.086 30.2469 101.613 30.2469C101.16 30.2469 100.749 30.216 100.379 30.1543C100.029 30.0926 99.7307 29.9691 99.4838 29.784C99.2369 29.5989 99.0415 29.352 98.8975 29.0434C98.7741 28.7143 98.7124 28.2926 98.7124 27.7783V20.496ZM114.511 14.5406C115.684 14.5406 116.743 14.6949 117.69 15.0034C118.657 15.2914 119.469 15.672 120.127 16.1451C120.539 16.4331 120.858 16.752 121.084 17.1017C121.331 17.4514 121.454 17.904 121.454 18.4594V29.2594C121.454 30.3497 121.249 31.2857 120.837 32.0674C120.426 32.8697 119.86 33.528 119.14 34.0423C118.441 34.5771 117.607 34.968 116.641 35.2149C115.694 35.4617 114.676 35.5851 113.586 35.5851C111.714 35.5851 110.243 35.328 109.173 34.8137C108.103 34.32 107.569 33.5074 107.569 32.376C107.569 31.9029 107.661 31.4811 107.846 31.1109C108.052 30.7611 108.278 30.4937 108.525 30.3086C109.122 30.6377 109.79 30.9154 110.531 31.1417C111.292 31.368 112.074 31.4811 112.876 31.4811C113.987 31.4811 114.871 31.296 115.53 30.9257C116.188 30.5554 116.517 29.9589 116.517 29.136V28.6423C115.674 29.0126 114.645 29.1977 113.431 29.1977C112.506 29.1977 111.621 29.064 110.778 28.7966C109.955 28.5086 109.225 28.0766 108.587 27.5006C107.97 26.904 107.466 26.1429 107.075 25.2171C106.705 24.2914 106.519 23.1909 106.519 21.9154C106.519 20.6606 106.715 19.5703 107.106 18.6446C107.517 17.7189 108.073 16.9577 108.772 16.3611C109.492 15.744 110.335 15.2914 111.302 15.0034C112.29 14.6949 113.359 14.5406 114.511 14.5406ZM116.425 19.0149C116.281 18.9326 116.065 18.8503 115.777 18.768C115.509 18.6857 115.17 18.6446 114.758 18.6446C113.75 18.6446 112.989 18.9326 112.475 19.5086C111.981 20.064 111.734 20.8663 111.734 21.9154C111.734 23.1086 111.981 23.9726 112.475 24.5074C112.989 25.0217 113.637 25.2789 114.419 25.2789C115.262 25.2789 115.931 25.0834 116.425 24.6926V19.0149ZM124.706 15.2194C124.912 15.1577 125.231 15.096 125.663 15.0343C126.115 14.9726 126.578 14.9417 127.051 14.9417C127.504 14.9417 127.905 14.9726 128.255 15.0343C128.625 15.096 128.934 15.2194 129.18 15.4046C129.427 15.5897 129.612 15.8469 129.736 16.176C129.88 16.4846 129.952 16.896 129.952 17.4103V24.0446C129.952 24.888 130.158 25.4949 130.569 25.8651C130.98 26.2149 131.577 26.3897 132.359 26.3897C132.832 26.3897 133.212 26.3486 133.5 26.2663C133.809 26.184 134.046 26.1017 134.21 26.0194V15.2194C134.416 15.1577 134.735 15.096 135.167 15.0343C135.619 14.9726 136.082 14.9417 136.555 14.9417C137.008 14.9417 137.409 14.9726 137.759 15.0343C138.129 15.096 138.438 15.2194 138.684 15.4046C138.931 15.5897 139.116 15.8469 139.24 16.176C139.384 16.4846 139.456 16.896 139.456 17.4103V26.7909C139.456 27.8194 139.024 28.5909 138.16 29.1051C137.44 29.5577 136.576 29.8971 135.568 30.1234C134.58 30.3703 133.5 30.4937 132.328 30.4937C131.217 30.4937 130.188 30.3703 129.242 30.1234C128.316 29.8766 127.514 29.496 126.835 28.9817C126.156 28.4674 125.632 27.8091 125.262 27.0069C124.891 26.184 124.706 25.1966 124.706 24.0446V15.2194ZM148.004 29.9691C147.778 30.0103 147.439 30.0617 146.986 30.1234C146.554 30.2057 146.112 30.2469 145.659 30.2469C145.207 30.2469 144.795 30.216 144.425 30.1543C144.075 30.0926 143.777 29.9691 143.53 29.784C143.283 29.5989 143.088 29.352 142.944 29.0434C142.82 28.7143 142.759 28.2926 142.759 27.7783V9.88114C142.985 9.84 143.314 9.78857 143.746 9.72686C144.199 9.64457 144.651 9.60343 145.104 9.60343C145.556 9.60343 145.957 9.63428 146.307 9.696C146.677 9.75771 146.986 9.88114 147.233 10.0663C147.48 10.2514 147.665 10.5086 147.788 10.8377C147.932 11.1463 148.004 11.5577 148.004 12.072V29.9691ZM157.733 26.6674C158.082 26.6674 158.463 26.6366 158.874 26.5749C159.306 26.4926 159.625 26.3897 159.831 26.2663V23.7977L157.609 23.9829C157.033 24.024 156.56 24.1474 156.19 24.3531C155.82 24.5589 155.634 24.8674 155.634 25.2789C155.634 25.6903 155.789 26.0297 156.097 26.2971C156.426 26.544 156.972 26.6674 157.733 26.6674ZM157.486 14.5406C158.597 14.5406 159.605 14.6537 160.51 14.88C161.436 15.1063 162.217 15.456 162.855 15.9291C163.513 16.3817 164.017 16.968 164.367 17.688C164.717 18.3874 164.892 19.2206 164.892 20.1874V27.0994C164.892 27.6343 164.737 28.0766 164.429 28.4263C164.141 28.7554 163.791 29.0434 163.38 29.2903C162.042 30.0926 160.16 30.4937 157.733 30.4937C156.642 30.4937 155.655 30.3909 154.77 30.1851C153.906 29.9794 153.156 29.6709 152.518 29.2594C151.901 28.848 151.417 28.3234 151.068 27.6857C150.738 27.048 150.574 26.3074 150.574 25.464C150.574 24.0446 150.996 22.9543 151.839 22.1931C152.682 21.432 153.989 20.9589 155.758 20.7737L159.8 20.3417V20.1257C159.8 19.5291 159.533 19.1074 158.998 18.8606C158.484 18.5931 157.733 18.4594 156.745 18.4594C155.964 18.4594 155.202 18.5417 154.462 18.7063C153.721 18.8709 153.053 19.0766 152.456 19.3234C152.189 19.1383 151.962 18.8606 151.777 18.4903C151.592 18.0994 151.5 17.6983 151.5 17.2869C151.5 16.752 151.623 16.3303 151.87 16.0217C152.137 15.6926 152.538 15.4149 153.073 15.1886C153.67 14.9623 154.369 14.7977 155.172 14.6949C155.994 14.592 156.766 14.5406 157.486 14.5406ZM173.345 29.9691C173.139 30.0309 172.81 30.0926 172.357 30.1543C171.925 30.216 171.473 30.2469 171 30.2469C170.547 30.2469 170.136 30.216 169.765 30.1543C169.416 30.0926 169.117 29.9691 168.87 29.784C168.624 29.5989 168.428 29.352 168.284 29.0434C168.161 28.7143 168.099 28.2926 168.099 27.7783V18.5211C168.099 18.048 168.181 17.6469 168.346 17.3177C168.531 16.968 168.788 16.6594 169.117 16.392C169.446 16.1246 169.848 15.888 170.321 15.6823C170.814 15.456 171.339 15.2606 171.894 15.096C172.45 14.9314 173.026 14.808 173.622 14.7257C174.219 14.6229 174.816 14.5714 175.412 14.5714C176.4 14.5714 177.181 14.7669 177.757 15.1577C178.333 15.528 178.621 16.1451 178.621 17.0091C178.621 17.2971 178.58 17.5851 178.498 17.8731C178.416 18.1406 178.313 18.3874 178.189 18.6137C177.757 18.6137 177.315 18.6343 176.862 18.6754C176.41 18.7166 175.968 18.7783 175.536 18.8606C175.104 18.9429 174.692 19.0354 174.301 19.1383C173.931 19.2206 173.612 19.3234 173.345 19.4469V29.9691Z" fill="#4E728C"/>
<path d="M25 66C25 53.8497 34.8497 44 47 44H202C214.15 44 224 53.8497 224 66V222C224 234.15 214.15 244 202 244H47C34.8497 244 25 234.15 25 222V66Z" fill="#FF7171"/>
<path d="M124.493 44.0585H202.495C214.645 44.0585 224.495 53.9083 224.495 66.0585V222.063C224.495 234.213 214.645 244.063 202.495 244.063H124.493V44.0585Z" fill="#FFA8B8"/>
<path d="M202.696 248H47.308C32.804 248 21 236.196 21 221.692V66.308C21 51.804 32.804 40 47.308 40H202.696C217.2 40 229 51.8 229 66.304V221.7C229 236.2 217.2 248 202.696 248ZM47.308 48C37.212 48 29 56.212 29 66.308V221.692C29 231.788 37.212 240 47.308 240H202.696C212.788 240 221 231.788 221 221.696V66.304C221 56.212 212.788 48 202.696 48H47.308Z" fill="#4E728C"/>
<path d="M62.8473 134.606L67.352 142.837L75.5827 147.341L67.352 151.846L62.8473 160.077L58.3426 151.846L50.1119 147.341L58.3426 142.837L62.8473 134.606ZM179.293 196.464L182.48 202.322L188.382 205.568L182.48 208.755L179.293 214.657L176.047 208.755L170.189 205.568L176.047 202.322L179.293 196.464ZM197.493 109.135L199.425 112.635L202.937 114.586L199.422 116.511L197.493 120.051L195.536 116.511L192.021 114.586L195.536 112.635L197.493 109.135Z" fill="#FFF8F8"/>
<path d="M65 54.2049C62.792 54.2049 61 55.9969 61 58.2049V66.2049C61 68.4129 62.792 70.2049 65 70.2049C67.208 70.2049 69 68.4129 69 66.2049V58.2049C69 55.9969 67.208 54.2049 65 54.2049ZM45 54.2049C42.792 54.2049 41 55.9969 41 58.2049V66.2049C41 68.4129 42.792 70.2049 45 70.2049C47.208 70.2049 49 68.4129 49 66.2049V58.2049C49 55.9969 47.208 54.2049 45 54.2049ZM125 54.2049C122.792 54.2049 121 55.9969 121 58.2049V66.2049C121 68.4129 122.792 70.2049 125 70.2049C127.208 70.2049 129 68.4129 129 66.2049V58.2049C129 55.9969 127.208 54.2049 125 54.2049ZM145 54.2049C142.792 54.2049 141 55.9969 141 58.2049V66.2049C141 68.4129 142.792 70.2049 145 70.2049C147.208 70.2049 149 68.4129 149 66.2049V58.2049C149 55.9969 147.208 54.2049 145 54.2049ZM165 54.2049C162.792 54.2049 161 55.9969 161 58.2049V66.2049C161 68.4129 162.792 70.2049 165 70.2049C167.208 70.2049 169 68.4129 169 66.2049V58.2049C169 55.9969 167.208 54.2049 165 54.2049ZM185 54.2049C182.792 54.2049 181 55.9969 181 58.2049V66.2049C181 68.4129 182.792 70.2049 185 70.2049C187.208 70.2049 189 68.4129 189 66.2049V58.2049C189 55.9969 187.208 54.2049 185 54.2049ZM205 54.2049C202.792 54.2049 201 55.9969 201 58.2049V66.2049C201 68.4129 202.792 70.2049 205 70.2049C207.208 70.2049 209 68.4129 209 66.2049V58.2049C209 55.9969 207.208 54.2049 205 54.2049ZM85 54.2049C82.792 54.2049 81 55.9969 81 58.2049V66.2049C81 68.4129 82.792 70.2049 85 70.2049C87.208 70.2049 89 68.4129 89 66.2049V58.2049C89 55.9969 87.208 54.2049 85 54.2049ZM105 54.2049C102.792 54.2049 101 55.9969 101 58.2049V66.2049C101 68.4129 102.792 70.2049 105 70.2049C107.208 70.2049 109 68.4129 109 66.2049V58.2049C109 55.9969 107.208 54.2049 105 54.2049Z" fill="#4E728C"/>
<path d="M124.3 92C123.988 92.0015 123.673 92.0531 123.374 92.1554L63.9082 112.852C62.6468 113.29 61.8569 114.549 62.0216 115.876L71.4212 192.931C71.532 193.843 72.0708 194.646 72.8805 195.084L123.019 222.334C123.439 222.564 123.907 222.678 124.372 222.678C124.841 222.678 125.314 222.561 125.737 222.328L176.131 194.707C176.932 194.266 177.477 193.466 177.585 192.559L186.979 115.51C187.143 114.178 186.345 112.907 185.07 112.475L125.221 92.1443C124.923 92.0449 124.612 91.9986 124.3 92ZM124.5 106.199L161.432 185.745H148.826L140.924 168.722H108.076L100.175 185.745H87.5679L124.5 106.199ZM124.5 133.188L113.364 157.336H135.636L124.5 133.188Z" fill="#4E728C"/>
</svg>
