<svg width="250" height="250" viewBox="0 0 250 250" fill="none" xmlns="http://www.w3.org/2000/svg">
<path d="M112.474 18.6754C111.96 18.6754 111.466 18.7577 110.993 18.9223C110.54 19.0869 110.139 19.3337 109.789 19.6629C109.46 19.9714 109.193 20.3623 108.987 20.8354C108.781 21.3086 108.679 21.864 108.679 22.5017C108.679 23.7771 109.039 24.7337 109.759 25.3714C110.499 26.0091 111.394 26.328 112.443 26.328C113.06 26.328 113.595 26.256 114.048 26.112C114.5 25.968 114.901 25.8137 115.251 25.6491C115.663 25.9371 115.971 26.256 116.177 26.6057C116.383 26.9349 116.485 27.336 116.485 27.8091C116.485 28.6526 116.084 29.3109 115.282 29.784C114.48 30.2366 113.369 30.4629 111.949 30.4629C110.653 30.4629 109.481 30.2777 108.432 29.9074C107.383 29.5166 106.477 28.9817 105.716 28.3029C104.976 27.6034 104.4 26.7703 103.988 25.8034C103.577 24.8366 103.371 23.7669 103.371 22.5943C103.371 21.2366 103.587 20.0537 104.019 19.0457C104.472 18.0171 105.079 17.1737 105.84 16.5154C106.601 15.8571 107.475 15.3634 108.463 15.0343C109.471 14.7051 110.53 14.5406 111.641 14.5406C113.122 14.5406 114.264 14.808 115.066 15.3429C115.868 15.8777 116.269 16.5669 116.269 17.4103C116.269 17.8011 116.177 18.1714 115.992 18.5211C115.807 18.8503 115.591 19.1383 115.344 19.3851C114.994 19.2206 114.572 19.0663 114.079 18.9223C113.585 18.7577 113.05 18.6754 112.474 18.6754ZM131.466 25.5257C131.466 27.0891 130.88 28.3131 129.708 29.1977C128.535 30.0823 126.807 30.5246 124.524 30.5246C123.66 30.5246 122.857 30.4629 122.117 30.3394C121.376 30.216 120.738 30.0309 120.204 29.784C119.689 29.5166 119.278 29.1874 118.969 28.7966C118.681 28.4057 118.537 27.9429 118.537 27.408C118.537 26.9143 118.64 26.5029 118.846 26.1737C119.052 25.824 119.298 25.536 119.586 25.3097C120.183 25.6389 120.862 25.9371 121.623 26.2046C122.405 26.4514 123.3 26.5749 124.308 26.5749C124.945 26.5749 125.429 26.4823 125.758 26.2971C126.108 26.112 126.282 25.8651 126.282 25.5566C126.282 25.2686 126.159 25.0423 125.912 24.8777C125.665 24.7131 125.254 24.5794 124.678 24.4766L123.752 24.2914C121.962 23.9417 120.625 23.3966 119.741 22.656C118.877 21.8949 118.445 20.8149 118.445 19.416C118.445 18.6549 118.609 17.9657 118.938 17.3486C119.268 16.7314 119.73 16.2171 120.327 15.8057C120.924 15.3943 121.633 15.0754 122.456 14.8491C123.3 14.6229 124.225 14.5097 125.233 14.5097C125.994 14.5097 126.704 14.5714 127.362 14.6949C128.041 14.7977 128.628 14.9623 129.121 15.1886C129.615 15.4149 130.006 15.7131 130.294 16.0834C130.582 16.4331 130.726 16.8549 130.726 17.3486C130.726 17.8217 130.633 18.2331 130.448 18.5829C130.284 18.912 130.068 19.1897 129.8 19.416C129.636 19.3131 129.389 19.2103 129.06 19.1074C128.73 18.984 128.37 18.8811 127.98 18.7989C127.589 18.696 127.188 18.6137 126.776 18.552C126.385 18.4903 126.025 18.4594 125.696 18.4594C125.017 18.4594 124.493 18.5417 124.122 18.7063C123.752 18.8503 123.567 19.0869 123.567 19.416C123.567 19.6423 123.67 19.8274 123.876 19.9714C124.081 20.1154 124.472 20.2491 125.048 20.3726L126.005 20.5886C127.98 21.0411 129.378 21.6686 130.201 22.4709C131.045 23.2526 131.466 24.2709 131.466 25.5257ZM146.654 25.5257C146.654 27.0891 146.068 28.3131 144.895 29.1977C143.722 30.0823 141.994 30.5246 139.711 30.5246C138.847 30.5246 138.045 30.4629 137.304 30.3394C136.564 30.216 135.926 30.0309 135.391 29.784C134.877 29.5166 134.465 29.1874 134.157 28.7966C133.869 28.4057 133.725 27.9429 133.725 27.408C133.725 26.9143 133.828 26.5029 134.033 26.1737C134.239 25.824 134.486 25.536 134.774 25.3097C135.37 25.6389 136.049 25.9371 136.81 26.2046C137.592 26.4514 138.487 26.5749 139.495 26.5749C140.133 26.5749 140.616 26.4823 140.945 26.2971C141.295 26.112 141.47 25.8651 141.47 25.5566C141.47 25.2686 141.346 25.0423 141.1 24.8777C140.853 24.7131 140.441 24.5794 139.865 24.4766L138.94 24.2914C137.15 23.9417 135.813 23.3966 134.928 22.656C134.064 21.8949 133.632 20.8149 133.632 19.416C133.632 18.6549 133.797 17.9657 134.126 17.3486C134.455 16.7314 134.918 16.2171 135.514 15.8057C136.111 15.3943 136.821 15.0754 137.644 14.8491C138.487 14.6229 139.413 14.5097 140.421 14.5097C141.182 14.5097 141.892 14.5714 142.55 14.6949C143.229 14.7977 143.815 14.9623 144.309 15.1886C144.802 15.4149 145.193 15.7131 145.481 16.0834C145.769 16.4331 145.913 16.8549 145.913 17.3486C145.913 17.8217 145.821 18.2331 145.636 18.5829C145.471 18.912 145.255 19.1897 144.988 19.416C144.823 19.3131 144.576 19.2103 144.247 19.1074C143.918 18.984 143.558 18.8811 143.167 18.7989C142.776 18.696 142.375 18.6137 141.964 18.552C141.573 18.4903 141.213 18.4594 140.884 18.4594C140.205 18.4594 139.68 18.5417 139.31 18.7063C138.94 18.8503 138.754 19.0869 138.754 19.416C138.754 19.6423 138.857 19.8274 139.063 19.9714C139.269 20.1154 139.66 20.2491 140.236 20.3726L141.192 20.5886C143.167 21.0411 144.566 21.6686 145.389 22.4709C146.232 23.2526 146.654 24.2709 146.654 25.5257Z" fill="#4E728C"/>
<path d="M28.6419 51.5639L48.0743 212.42C48.764 218.119 52.8275 222.854 58.3842 224.432L120.723 242.126C123.244 242.841 125.914 242.859 128.445 242.173L194.009 224.411C199.747 222.858 203.924 217.951 204.515 212.071L220.687 51.4253C221.11 47.2267 217.793 43.5862 213.545 43.5862H35.7664C31.4647 43.5862 28.1264 47.3227 28.6419 51.5639Z" fill="#7BBEEB"/>
<path d="M215.161 43.5862H125.416V244.414C126.729 244.421 128.041 244.252 129.318 243.908L195.455 225.991C201.243 224.424 205.457 219.475 206.052 213.544L222.366 51.4938C222.792 47.2585 219.446 43.5862 215.161 43.5862Z" fill="#ACE3FF"/>
<path d="M125.506 248C123.838 248 122.167 247.77 120.546 247.311L57.6619 229.463C50.6508 227.473 45.5549 221.534 44.6798 214.326L25.0776 52.064C24.7082 49.0157 25.6693 45.9495 27.7063 43.6472C29.7648 41.3305 32.7234 40 35.8326 40H215.164C218.227 40 221.161 41.2982 223.212 43.5683C225.245 45.8204 226.242 48.84 225.937 51.856L209.62 213.906C208.874 221.265 203.56 227.512 196.387 229.449L130.257 247.365C128.701 247.788 127.105 248 125.506 248ZM35.8326 47.1724C34.7604 47.1724 33.7813 47.6099 33.0784 48.4061C32.3899 49.1843 32.0779 50.1777 32.2034 51.2033L51.8056 213.465C52.3292 217.793 55.399 221.365 59.6235 222.563L122.511 240.412C124.43 240.953 126.456 240.967 128.382 240.447L194.515 222.531C198.837 221.362 202.043 217.607 202.487 213.189L218.801 51.1352C218.901 50.1203 218.579 49.1412 217.894 48.3774C217.187 47.5992 216.215 47.1724 215.161 47.1724H35.8326Z" fill="#4E728C"/>
<path d="M35.761 68.6897C33.7778 68.6897 32.1747 67.0866 32.1747 65.1035V57.9311C32.1747 55.9479 33.7778 54.3448 35.761 54.3448C37.7441 54.3448 39.3472 55.9479 39.3472 57.9311V65.1035C39.3472 67.0866 37.7441 68.6897 35.761 68.6897ZM53.692 68.6897C51.7088 68.6897 50.1058 67.0866 50.1058 65.1035V57.9311C50.1058 55.9479 51.7088 54.3448 53.692 54.3448C55.6752 54.3448 57.2782 55.9479 57.2782 57.9311V65.1035C57.2782 67.0866 55.6752 68.6897 53.692 68.6897ZM71.623 68.6897C69.6398 68.6897 68.0368 67.0866 68.0368 65.1035V57.9311C68.0368 55.9479 69.6398 54.3448 71.623 54.3448C73.6062 54.3448 75.2092 55.9479 75.2092 57.9311V65.1035C75.2092 67.0866 73.6062 68.6897 71.623 68.6897ZM89.5541 68.6897C87.5709 68.6897 85.9678 67.0866 85.9678 65.1035V57.9311C85.9678 55.9479 87.5709 54.3448 89.5541 54.3448C91.5372 54.3448 93.1403 55.9479 93.1403 57.9311V65.1035C93.1403 67.0866 91.5372 68.6897 89.5541 68.6897ZM107.485 68.6897C105.502 68.6897 103.899 67.0866 103.899 65.1035V57.9311C103.899 55.9479 105.502 54.3448 107.485 54.3448C109.468 54.3448 111.071 55.9479 111.071 57.9311V65.1035C111.071 67.0866 109.468 68.6897 107.485 68.6897ZM125.416 68.6897C123.433 68.6897 121.83 67.0866 121.83 65.1035V57.9311C121.83 55.9479 123.433 54.3448 125.416 54.3448C127.399 54.3448 129.002 55.9479 129.002 57.9311V65.1035C129.002 67.0866 127.399 68.6897 125.416 68.6897ZM143.347 68.6897C141.364 68.6897 139.761 67.0866 139.761 65.1035V57.9311C139.761 55.9479 141.364 54.3448 143.347 54.3448C145.33 54.3448 146.933 55.9479 146.933 57.9311V65.1035C146.933 67.0866 145.33 68.6897 143.347 68.6897ZM161.278 68.6897C159.295 68.6897 157.692 67.0866 157.692 65.1035V57.9311C157.692 55.9479 159.295 54.3448 161.278 54.3448C163.261 54.3448 164.864 55.9479 164.864 57.9311V65.1035C164.864 67.0866 163.261 68.6897 161.278 68.6897ZM179.209 68.6897C177.226 68.6897 175.623 67.0866 175.623 65.1035V57.9311C175.623 55.9479 177.226 54.3448 179.209 54.3448C181.192 54.3448 182.795 55.9479 182.795 57.9311V65.1035C182.795 67.0866 181.192 68.6897 179.209 68.6897ZM197.14 68.6897C195.157 68.6897 193.554 67.0866 193.554 65.1035V57.9311C193.554 55.9479 195.157 54.3448 197.14 54.3448C199.123 54.3448 200.726 55.9479 200.726 57.9311V65.1035C200.726 67.0866 199.123 68.6897 197.14 68.6897ZM215.071 68.6897C213.088 68.6897 211.485 67.0866 211.485 65.1035V57.9311C211.485 55.9479 213.088 54.3448 215.071 54.3448C217.054 54.3448 218.658 55.9479 218.658 57.9311V65.1035C218.658 67.0866 217.054 68.6897 215.071 68.6897ZM154.102 222.201C152.524 222.201 151.075 221.15 150.645 219.554C150.125 217.643 151.255 215.674 153.166 215.154L160.339 213.21C162.254 212.687 164.222 213.82 164.739 215.731C165.259 217.643 164.129 219.612 162.218 220.132L155.045 222.075C154.73 222.161 154.414 222.201 154.102 222.201ZM125.502 230.08L106.502 224.686C104.598 224.148 103.49 222.161 104.035 220.257C104.573 218.353 106.549 217.238 108.464 217.79L125.545 222.638L138.821 219.045C140.736 218.514 142.705 219.655 143.222 221.566C143.742 223.478 142.612 225.45 140.701 225.966L125.502 230.08Z" fill="#4E728C"/>
<path d="M66.2437 133.241L70.6835 141.353L78.7955 145.793L70.6835 150.233L66.2437 158.345L61.804 150.233L53.692 145.793L61.804 141.353L66.2437 133.241ZM181.01 194.207L184.151 199.981L189.968 203.18L184.151 206.321L181.01 212.138L177.811 206.321L172.037 203.18L177.811 199.981L181.01 194.207ZM198.948 108.138L200.852 111.588L204.313 113.51L200.848 115.407L198.948 118.897L197.018 115.407L193.554 113.51L197.018 111.588L198.948 108.138Z" fill="#FFF8F8"/>
<path d="M179.274 86.6207H71.6231C69.4211 86.6207 67.7392 88.5859 68.0835 90.7627L70.8197 108.138H159.033L156.491 129.655H100.313V151.172H153.948L150.717 178.517L125.753 186.127L103.709 178.661L102.117 168.544C101.84 166.801 100.338 165.517 98.5734 165.517H84.0529C81.8509 165.517 80.169 167.486 80.5097 169.663L84.1461 192.754C84.3505 194.053 85.2578 195.132 86.5058 195.552L124.351 208.369C124.713 208.491 125.086 208.552 125.463 208.552C125.803 208.552 126.144 208.501 126.474 208.401L168.228 195.677C169.57 195.268 170.545 194.103 170.706 192.711L181.074 104.975L182.778 90.5619C183.025 88.464 181.386 86.6207 179.274 86.6207Z" fill="#FAEFDE"/>
<path d="M125.466 212.138C124.71 212.138 123.957 212.016 123.229 211.772L85.3582 198.948C82.8443 198.102 81.0225 195.943 80.6065 193.318L76.9665 170.219C76.6401 168.146 77.2354 166.041 78.5982 164.445C79.9645 162.849 81.9513 161.935 84.0528 161.935H98.5769C102.131 161.935 105.111 164.484 105.663 167.995L106.918 175.964L125.818 182.362L147.439 175.774L149.913 154.759H100.313C98.3295 154.759 96.7265 153.156 96.7265 151.172V129.655C96.7265 127.672 98.3295 126.069 100.313 126.069H153.302L154.999 111.724H70.8161C69.0517 111.724 67.5491 110.44 67.2729 108.694L64.5367 91.315C64.2103 89.2458 64.8056 87.1407 66.1684 85.5448C67.5347 83.949 69.5215 83.0345 71.623 83.0345H179.277C181.307 83.0345 183.244 83.9059 184.596 85.4229C185.941 86.9399 186.579 88.9661 186.339 90.9851L174.271 193.127C173.937 195.932 171.979 198.281 169.275 199.102L127.521 211.833C126.858 212.038 126.166 212.138 125.466 212.138ZM84.0528 169.103L87.6928 192.195L125.502 204.973L167.185 192.242L179.209 90.2069H71.623L73.8823 104.552H159.033C160.059 104.552 161.034 104.989 161.712 105.757C162.393 106.521 162.713 107.543 162.594 108.558L160.052 130.075C159.84 131.882 158.309 133.241 156.491 133.241H103.899V147.586H153.948C154.97 147.586 155.949 148.024 156.627 148.791C157.308 149.555 157.627 150.577 157.509 151.592L154.281 178.937C154.113 180.353 153.127 181.533 151.768 181.946L126.804 189.556C126.083 189.778 125.316 189.767 124.609 189.523L102.565 182.057C101.299 181.63 100.381 180.536 100.169 179.217L98.5734 169.103H84.0528Z" fill="#4E728C"/>
</svg>
