<svg width="250" height="250" viewBox="0 0 250 250" fill="none" xmlns="http://www.w3.org/2000/svg">
<path d="M27.9443 51.9199L47.5024 213.816C48.1965 219.552 52.2863 224.318 57.8789 225.906L120.621 243.715C123.158 244.434 125.845 244.452 128.393 243.761L194.381 225.885C200.156 224.321 204.36 219.383 204.954 213.465L221.231 51.7804C221.657 47.5546 218.318 43.8906 214.043 43.8906H35.1149C30.7854 43.8906 27.4255 47.6512 27.9443 51.9199Z" fill="#F69797"/>
<path d="M214.043 43.8906H124.5V244.266C125.81 244.273 127.119 244.105 128.393 243.761L194.381 225.885C200.156 224.321 204.36 219.383 204.954 213.465L221.231 51.7804C221.657 47.5546 218.318 43.8906 214.043 43.8906Z" fill="#F9AEAE"/>
<path d="M124.589 247.844C122.926 247.844 121.258 247.615 119.641 247.157L56.8985 229.348C49.9033 227.363 44.8187 221.437 43.9457 214.245L24.3876 52.3493C24.0191 49.3079 24.978 46.2486 27.0104 43.9515C29.0643 41.64 32.0162 40.3125 35.1184 40.3125H214.046C217.102 40.3125 220.029 41.6078 222.075 43.8727C224.104 46.1198 225.099 49.1326 224.795 52.1418L208.514 213.827C207.77 221.169 202.467 227.402 195.311 229.334L129.33 247.21C127.778 247.633 126.185 247.844 124.589 247.844ZM35.1184 47.4688C34.0486 47.4688 33.0718 47.9053 32.3704 48.6996C31.6834 49.4761 31.3721 50.4672 31.4974 51.4906L51.0554 213.386C51.5778 217.705 54.6407 221.269 58.8557 222.464L121.602 240.272C123.516 240.813 125.538 240.827 127.459 240.308L193.443 222.432C197.755 221.265 200.954 217.519 201.397 213.111L217.674 51.4226C217.775 50.41 217.453 49.4331 216.769 48.671C216.064 47.8945 215.095 47.4688 214.043 47.4688H35.1184Z" fill="#4E728C"/>
<path d="M35.0469 68.9375C33.0682 68.9375 31.4688 67.3381 31.4688 65.3594V58.2031C31.4688 56.2244 33.0682 54.625 35.0469 54.625C37.0256 54.625 38.625 56.2244 38.625 58.2031V65.3594C38.625 67.3381 37.0256 68.9375 35.0469 68.9375ZM52.9375 68.9375C50.9588 68.9375 49.3594 67.3381 49.3594 65.3594V58.2031C49.3594 56.2244 50.9588 54.625 52.9375 54.625C54.9162 54.625 56.5156 56.2244 56.5156 58.2031V65.3594C56.5156 67.3381 54.9162 68.9375 52.9375 68.9375ZM70.8281 68.9375C68.8494 68.9375 67.25 67.3381 67.25 65.3594V58.2031C67.25 56.2244 68.8494 54.625 70.8281 54.625C72.8068 54.625 74.4062 56.2244 74.4062 58.2031V65.3594C74.4062 67.3381 72.8068 68.9375 70.8281 68.9375ZM88.7188 68.9375C86.74 68.9375 85.1406 67.3381 85.1406 65.3594V58.2031C85.1406 56.2244 86.74 54.625 88.7188 54.625C90.6975 54.625 92.2969 56.2244 92.2969 58.2031V65.3594C92.2969 67.3381 90.6975 68.9375 88.7188 68.9375ZM106.609 68.9375C104.631 68.9375 103.031 67.3381 103.031 65.3594V58.2031C103.031 56.2244 104.631 54.625 106.609 54.625C108.588 54.625 110.188 56.2244 110.188 58.2031V65.3594C110.188 67.3381 108.588 68.9375 106.609 68.9375ZM124.5 68.9375C122.521 68.9375 120.922 67.3381 120.922 65.3594V58.2031C120.922 56.2244 122.521 54.625 124.5 54.625C126.479 54.625 128.078 56.2244 128.078 58.2031V65.3594C128.078 67.3381 126.479 68.9375 124.5 68.9375ZM142.391 68.9375C140.412 68.9375 138.812 67.3381 138.812 65.3594V58.2031C138.812 56.2244 140.412 54.625 142.391 54.625C144.369 54.625 145.969 56.2244 145.969 58.2031V65.3594C145.969 67.3381 144.369 68.9375 142.391 68.9375ZM160.281 68.9375C158.303 68.9375 156.703 67.3381 156.703 65.3594V58.2031C156.703 56.2244 158.303 54.625 160.281 54.625C162.26 54.625 163.859 56.2244 163.859 58.2031V65.3594C163.859 67.3381 162.26 68.9375 160.281 68.9375ZM178.172 68.9375C176.193 68.9375 174.594 67.3381 174.594 65.3594V58.2031C174.594 56.2244 176.193 54.625 178.172 54.625C180.151 54.625 181.75 56.2244 181.75 58.2031V65.3594C181.75 67.3381 180.151 68.9375 178.172 68.9375ZM196.062 68.9375C194.084 68.9375 192.484 67.3381 192.484 65.3594V58.2031C192.484 56.2244 194.084 54.625 196.062 54.625C198.041 54.625 199.641 56.2244 199.641 58.2031V65.3594C199.641 67.3381 198.041 68.9375 196.062 68.9375ZM213.953 68.9375C211.974 68.9375 210.375 67.3381 210.375 65.3594V58.2031C210.375 56.2244 211.974 54.625 213.953 54.625C215.932 54.625 217.531 56.2244 217.531 58.2031V65.3594C217.531 67.3381 215.932 68.9375 213.953 68.9375Z" fill="#4E728C"/>
<path d="M178.236 86.8281H70.8281C68.6312 86.8281 66.953 88.7889 67.2965 90.9609L76.3134 148.214C76.5889 149.953 78.0881 151.234 79.8486 151.234H148.942C151.085 151.234 152.746 153.106 152.495 155.231L149.744 178.518L124.836 186.11L102.842 178.661L101.253 168.567C100.977 166.828 99.4782 165.547 97.7177 165.547H83.2299C81.0329 165.547 79.3548 167.511 79.6947 169.683L83.3229 192.723C83.5269 194.018 84.4322 195.095 85.6773 195.514L123.437 208.302C123.799 208.424 124.171 208.484 124.547 208.484C124.886 208.484 125.226 208.434 125.556 208.334L167.216 195.639C168.554 195.231 169.527 194.068 169.688 192.68L176.648 133.766C176.902 131.637 175.241 129.766 173.098 129.766H98.2008C96.4403 129.766 94.9411 128.485 94.6656 126.746L92.4114 112.433C92.0679 110.261 93.746 108.297 95.9466 108.297H176.479C178.294 108.297 179.821 106.941 180.033 105.137L181.732 90.7569C181.979 88.6673 180.344 86.8281 178.236 86.8281Z" fill="#FAEFDE"/>
<path d="M124.55 212.062C123.795 212.062 123.044 211.941 122.317 211.698L84.5324 198.902C82.0241 198.058 80.2064 195.904 79.7914 193.284L76.1596 170.238C75.834 168.17 76.4279 166.069 77.7876 164.477C79.1509 162.885 81.1332 161.972 83.2299 161.972H97.7214C101.267 161.972 104.241 164.516 104.792 168.019L106.044 175.97L124.901 182.353L146.473 175.78L148.942 154.812H79.8486C76.3027 154.812 73.3293 152.268 72.7782 148.765L63.7578 91.5155C63.4322 89.4509 64.0262 87.3505 65.3858 85.7583C66.7491 84.1624 68.7314 83.25 70.8282 83.25H178.24C180.262 83.25 182.194 84.1159 183.539 85.6295C184.884 87.1394 185.521 89.1611 185.285 91.1755L183.586 105.56C183.163 109.159 180.108 111.875 176.479 111.875H95.9466L98.2044 126.188H173.102C175.145 126.188 177.095 127.064 178.451 128.592C179.807 130.116 180.451 132.156 180.208 134.185L173.248 193.098C172.916 195.904 170.958 198.244 168.257 199.063L126.604 211.762C125.938 211.962 125.248 212.062 124.55 212.062ZM83.2299 169.125L86.8618 192.165L124.586 204.913L166.174 192.211L173.098 133.344H98.1972C94.6513 133.344 91.6779 130.8 91.1269 127.297L88.8727 112.988C88.547 110.92 89.141 108.819 90.5007 107.227C91.864 105.635 93.8462 104.722 95.943 104.722H176.479L178.172 90.4062H70.8282L79.8486 147.656H148.942C150.985 147.656 152.935 148.533 154.292 150.061C155.648 151.585 156.292 153.625 156.048 155.653L153.297 178.94C153.129 180.353 152.145 181.53 150.789 181.942L125.881 189.535C125.162 189.756 124.396 189.746 123.691 189.502L101.697 182.053C100.434 181.627 99.5176 180.536 99.3065 179.219L97.7178 169.125H83.2299ZM153.121 222.103C151.547 222.103 150.102 221.054 149.672 219.462C149.153 217.555 150.28 215.591 152.188 215.072L159.344 213.132C161.255 212.61 163.219 213.741 163.734 215.648C164.253 217.555 163.126 219.519 161.219 220.038L154.063 221.977C153.748 222.063 153.433 222.103 153.121 222.103ZM124.586 229.964L105.629 224.582C103.729 224.046 102.623 222.063 103.167 220.163C103.704 218.263 105.676 217.151 107.586 217.702L124.629 222.539L137.875 218.954C139.786 218.424 141.75 219.562 142.265 221.469C142.784 223.377 141.657 225.344 139.75 225.86L124.586 229.964Z" fill="#4E728C"/>
<path d="M190.695 108.297L195.125 116.391L203.219 120.82L195.125 125.25L190.695 133.344L186.266 125.25L178.172 120.82L186.266 116.391L190.695 108.297ZM179.968 194.172L183.103 199.933L188.906 203.124L183.103 206.259L179.968 212.062L176.776 206.259L171.016 203.124L176.776 199.933L179.968 194.172ZM54.7194 151.234L56.6122 154.677L60.0544 156.594L56.6122 158.487L54.7194 161.969L52.8015 158.487L49.3594 156.594L52.8015 154.677L54.7194 151.234Z" fill="#FAEFDE"/>
<path d="M108.841 29.9691C108.636 30.0309 108.306 30.0926 107.854 30.1543C107.422 30.216 106.969 30.2469 106.496 30.2469C106.044 30.2469 105.632 30.216 105.262 30.1543C104.912 30.0926 104.614 29.9691 104.367 29.784C104.12 29.5989 103.925 29.352 103.781 29.0434C103.657 28.7143 103.596 28.2926 103.596 27.7783V20.928C103.596 20.0846 103.38 19.4983 102.948 19.1691C102.536 18.8194 102.022 18.6446 101.405 18.6446C100.993 18.6446 100.602 18.696 100.232 18.7989C99.8618 18.9017 99.5635 19.0251 99.3372 19.1691V29.9691C99.1315 30.0309 98.8024 30.0926 98.3498 30.1543C97.9178 30.216 97.4652 30.2469 96.9921 30.2469C96.5395 30.2469 96.1281 30.216 95.7578 30.1543C95.4081 30.0926 95.1098 29.9691 94.8629 29.784C94.6161 29.5989 94.4206 29.352 94.2766 29.0434C94.1532 28.7143 94.0915 28.2926 94.0915 27.7783V9.88114C94.3178 9.84 94.6469 9.78857 95.0789 9.72686C95.5315 9.64457 95.9841 9.60343 96.4366 9.60343C96.8892 9.60343 97.2904 9.63428 97.6401 9.696C98.0104 9.75771 98.3189 9.88114 98.5658 10.0663C98.8126 10.2514 98.9978 10.5086 99.1212 10.8377C99.2652 11.1463 99.3372 11.5577 99.3372 12.072V15.096C99.6046 14.9931 100.006 14.88 100.541 14.7566C101.096 14.6126 101.703 14.5406 102.361 14.5406C104.398 14.5406 105.982 15.0549 107.113 16.0834C108.265 17.0914 108.841 18.6034 108.841 20.6194V29.9691ZM117.326 24.8469C117.326 25.3817 117.49 25.7623 117.819 25.9886C118.169 26.2149 118.653 26.328 119.27 26.328C119.578 26.328 119.897 26.3074 120.226 26.2663C120.555 26.2046 120.843 26.1326 121.09 26.0503C121.275 26.2766 121.43 26.5337 121.553 26.8217C121.697 27.0891 121.769 27.4183 121.769 27.8091C121.769 28.5909 121.471 29.2286 120.874 29.7223C120.298 30.216 119.27 30.4629 117.789 30.4629C115.978 30.4629 114.579 30.0514 113.592 29.2286C112.625 28.4057 112.142 27.0686 112.142 25.2171V12.0103C112.368 11.9486 112.687 11.8869 113.098 11.8251C113.53 11.7429 113.983 11.7017 114.456 11.7017C115.361 11.7017 116.061 11.8663 116.554 12.1954C117.069 12.504 117.326 13.1726 117.326 14.2011V16.176H121.368C121.491 16.4023 121.605 16.6903 121.707 17.04C121.831 17.3691 121.893 17.7394 121.893 18.1509C121.893 18.8709 121.728 19.3954 121.399 19.7246C121.09 20.0331 120.669 20.1874 120.134 20.1874H117.326V24.8469ZM131.625 14.5406C132.468 14.5406 133.291 14.664 134.093 14.9109C134.916 15.1371 135.626 15.4869 136.222 15.96C136.839 15.5486 137.529 15.2091 138.29 14.9417C139.071 14.6743 140.007 14.5406 141.098 14.5406C141.879 14.5406 142.641 14.6434 143.381 14.8491C144.142 15.0549 144.811 15.384 145.387 15.8366C145.983 16.2686 146.457 16.8549 146.806 17.5954C147.156 18.3154 147.331 19.2 147.331 20.2491V29.9691C147.125 30.0309 146.796 30.0926 146.343 30.1543C145.911 30.216 145.459 30.2469 144.986 30.2469C144.533 30.2469 144.122 30.216 143.751 30.1543C143.402 30.0926 143.103 29.9691 142.857 29.784C142.61 29.5989 142.414 29.352 142.27 29.0434C142.147 28.7143 142.085 28.2926 142.085 27.7783V20.4034C142.085 19.7863 141.91 19.344 141.561 19.0766C141.211 18.7886 140.738 18.6446 140.141 18.6446C139.853 18.6446 139.545 18.7166 139.215 18.8606C138.886 18.984 138.639 19.1177 138.475 19.2617C138.495 19.344 138.506 19.4263 138.506 19.5086C138.506 19.5703 138.506 19.632 138.506 19.6937V29.9691C138.279 30.0309 137.94 30.0926 137.487 30.1543C137.055 30.216 136.613 30.2469 136.161 30.2469C135.708 30.2469 135.297 30.216 134.926 30.1543C134.577 30.0926 134.278 29.9691 134.031 29.784C133.785 29.5989 133.589 29.352 133.445 29.0434C133.322 28.7143 133.26 28.2926 133.26 27.7783V20.4034C133.26 19.7863 133.065 19.344 132.674 19.0766C132.303 18.7886 131.851 18.6446 131.316 18.6446C130.946 18.6446 130.627 18.7063 130.359 18.8297C130.092 18.9326 129.866 19.0354 129.681 19.1383V29.9691C129.475 30.0309 129.146 30.0926 128.693 30.1543C128.261 30.216 127.809 30.2469 127.335 30.2469C126.883 30.2469 126.471 30.216 126.101 30.1543C125.751 30.0926 125.453 29.9691 125.206 29.784C124.959 29.5989 124.764 29.352 124.62 29.0434C124.497 28.7143 124.435 28.2926 124.435 27.7783V18.4594C124.435 17.904 124.548 17.4617 124.774 17.1326C125.021 16.8034 125.35 16.4949 125.762 16.2069C126.461 15.7131 127.325 15.312 128.354 15.0034C129.403 14.6949 130.493 14.5406 131.625 14.5406ZM155.869 29.9691C155.643 30.0103 155.303 30.0617 154.851 30.1234C154.419 30.2057 153.977 30.2469 153.524 30.2469C153.071 30.2469 152.66 30.216 152.29 30.1543C151.94 30.0926 151.642 29.9691 151.395 29.784C151.148 29.5989 150.953 29.352 150.809 29.0434C150.685 28.7143 150.623 28.2926 150.623 27.7783V9.88114C150.85 9.84 151.179 9.78857 151.611 9.72686C152.063 9.64457 152.516 9.60343 152.969 9.60343C153.421 9.60343 153.822 9.63428 154.172 9.696C154.542 9.75771 154.851 9.88114 155.098 10.0663C155.345 10.2514 155.53 10.5086 155.653 10.8377C155.797 11.1463 155.869 11.5577 155.869 12.072V29.9691Z" fill="#4E728C"/>
</svg>
