<svg width="250" height="250" viewBox="0 0 250 250" fill="none" xmlns="http://www.w3.org/2000/svg">
<path d="M56.2275 10.8377C56.2275 10.056 56.4846 9.39771 56.9989 8.86285C57.5338 8.328 58.2332 8.06057 59.0972 8.06057C59.9612 8.06057 60.6504 8.328 61.1646 8.86285C61.6995 9.39771 61.9669 10.056 61.9669 10.8377C61.9669 11.6194 61.6995 12.2777 61.1646 12.8126C60.6504 13.3474 59.9612 13.6149 59.0972 13.6149C58.2332 13.6149 57.5338 13.3474 56.9989 12.8126C56.4846 12.2777 56.2275 11.6194 56.2275 10.8377ZM55.1784 32.0983C55.6309 31.8103 55.9601 31.4091 56.1658 30.8949C56.3715 30.4011 56.4744 29.8457 56.4744 29.2286V15.2194C56.7006 15.1783 57.0298 15.1269 57.4618 15.0651C57.9144 14.9829 58.3669 14.9417 58.8195 14.9417C59.2721 14.9417 59.6732 14.9726 60.0229 15.0343C60.3932 15.096 60.7018 15.2194 60.9486 15.4046C61.1955 15.5897 61.3806 15.8469 61.5041 16.176C61.6481 16.4846 61.7201 16.896 61.7201 17.4103V29.7223C61.7201 30.5863 61.6172 31.368 61.4115 32.0674C61.2058 32.7669 60.9075 33.3634 60.5166 33.8571C60.1464 34.3714 59.6835 34.7623 59.1281 35.0297C58.5932 35.3177 57.9864 35.4617 57.3075 35.4617C56.4024 35.4617 55.6926 35.184 55.1784 34.6286C54.6641 34.0937 54.3966 33.4149 54.3761 32.592L55.1784 32.0983ZM71.4743 26.6674C71.824 26.6674 72.2046 26.6366 72.616 26.5749C73.048 26.4926 73.3669 26.3897 73.5726 26.2663V23.7977L71.3509 23.9829C70.7749 24.024 70.3017 24.1474 69.9314 24.3531C69.5612 24.5589 69.376 24.8674 69.376 25.2789C69.376 25.6903 69.5303 26.0297 69.8389 26.2971C70.168 26.544 70.7132 26.6674 71.4743 26.6674ZM71.2274 14.5406C72.3383 14.5406 73.3463 14.6537 74.2514 14.88C75.1772 15.1063 75.9589 15.456 76.5966 15.9291C77.2549 16.3817 77.7589 16.968 78.1086 17.688C78.4583 18.3874 78.6332 19.2206 78.6332 20.1874V27.0994C78.6332 27.6343 78.4789 28.0766 78.1703 28.4263C77.8823 28.7554 77.5326 29.0434 77.1212 29.2903C75.784 30.0926 73.9017 30.4937 71.4743 30.4937C70.384 30.4937 69.3966 30.3909 68.512 30.1851C67.648 29.9794 66.8972 29.6709 66.2594 29.2594C65.6423 28.848 65.1589 28.3234 64.8092 27.6857C64.48 27.048 64.3154 26.3074 64.3154 25.464C64.3154 24.0446 64.7372 22.9543 65.5806 22.1931C66.424 21.432 67.7303 20.9589 69.4994 20.7737L73.5417 20.3417V20.1257C73.5417 19.5291 73.2743 19.1074 72.7394 18.8606C72.2252 18.5931 71.4743 18.4594 70.4869 18.4594C69.7052 18.4594 68.944 18.5417 68.2034 18.7063C67.4629 18.8709 66.7943 19.0766 66.1977 19.3234C65.9303 19.1383 65.704 18.8606 65.5189 18.4903C65.3337 18.0994 65.2412 17.6983 65.2412 17.2869C65.2412 16.752 65.3646 16.3303 65.6114 16.0217C65.8789 15.6926 66.28 15.4149 66.8149 15.1886C67.4114 14.9623 68.1109 14.7977 68.9132 14.6949C69.736 14.592 70.5074 14.5406 71.2274 14.5406ZM91.5076 29.5989C91.2196 29.8251 90.7979 30.0103 90.2424 30.1543C89.687 30.2983 89.0596 30.3703 88.3602 30.3703C87.5579 30.3703 86.8584 30.2674 86.2619 30.0617C85.6859 29.856 85.2847 29.5269 85.0584 29.0743C84.8733 28.7246 84.647 28.2411 84.3796 27.624C84.1327 26.9863 83.8653 26.2869 83.5773 25.5257C83.2893 24.744 82.991 23.9109 82.6824 23.0263C82.3739 22.1417 82.0756 21.2674 81.7876 20.4034C81.5201 19.5394 81.2733 18.7063 81.047 17.904C80.8207 17.1017 80.6356 16.392 80.4916 15.7749C80.7796 15.4869 81.1601 15.24 81.6333 15.0343C82.127 14.808 82.6619 14.6949 83.2379 14.6949C83.9579 14.6949 84.5442 14.8491 84.9967 15.1577C85.4699 15.4457 85.8196 16.0011 86.0459 16.824L87.2493 21.5451C87.4756 22.4709 87.6916 23.3143 87.8973 24.0754C88.103 24.816 88.2573 25.392 88.3602 25.8034H88.5144C88.9053 24.2811 89.3167 22.5943 89.7487 20.7429C90.1807 18.8914 90.5716 17.0709 90.9213 15.2811C91.271 15.096 91.6619 14.952 92.0939 14.8491C92.5464 14.7463 92.9784 14.6949 93.3899 14.6949C94.1099 14.6949 94.7167 14.8491 95.2104 15.1577C95.7042 15.4663 95.951 16.0011 95.951 16.7623C95.951 17.0914 95.8687 17.5749 95.7042 18.2126C95.5602 18.8297 95.3647 19.5394 95.1179 20.3417C94.8916 21.1234 94.6139 21.9566 94.2847 22.8411C93.9762 23.7257 93.6573 24.5897 93.3282 25.4331C92.999 26.2766 92.6699 27.0686 92.3407 27.8091C92.0322 28.5291 91.7544 29.1257 91.5076 29.5989ZM104.411 26.6674C104.76 26.6674 105.141 26.6366 105.552 26.5749C105.984 26.4926 106.303 26.3897 106.509 26.2663V23.7977L104.287 23.9829C103.711 24.024 103.238 24.1474 102.868 24.3531C102.498 24.5589 102.312 24.8674 102.312 25.2789C102.312 25.6903 102.467 26.0297 102.775 26.2971C103.104 26.544 103.65 26.6674 104.411 26.6674ZM104.164 14.5406C105.275 14.5406 106.283 14.6537 107.188 14.88C108.114 15.1063 108.895 15.456 109.533 15.9291C110.191 16.3817 110.695 16.968 111.045 17.688C111.395 18.3874 111.57 19.2206 111.57 20.1874V27.0994C111.57 27.6343 111.415 28.0766 111.107 28.4263C110.819 28.7554 110.469 29.0434 110.058 29.2903C108.72 30.0926 106.838 30.4937 104.411 30.4937C103.32 30.4937 102.333 30.3909 101.448 30.1851C100.584 29.9794 99.8335 29.6709 99.1958 29.2594C98.5787 28.848 98.0953 28.3234 97.7455 27.6857C97.4164 27.048 97.2518 26.3074 97.2518 25.464C97.2518 24.0446 97.6735 22.9543 98.517 22.1931C99.3604 21.432 100.667 20.9589 102.436 20.7737L106.478 20.3417V20.1257C106.478 19.5291 106.211 19.1074 105.676 18.8606C105.162 18.5931 104.411 18.4594 103.423 18.4594C102.642 18.4594 101.88 18.5417 101.14 18.7063C100.399 18.8709 99.7307 19.0766 99.1341 19.3234C98.8667 19.1383 98.6404 18.8606 98.4553 18.4903C98.2701 18.0994 98.1775 17.6983 98.1775 17.2869C98.1775 16.752 98.301 16.3303 98.5478 16.0217C98.8153 15.6926 99.2164 15.4149 99.7513 15.1886C100.348 14.9623 101.047 14.7977 101.85 14.6949C102.672 14.592 103.444 14.5406 104.164 14.5406ZM127.428 25.5257C127.428 27.0891 126.842 28.3131 125.67 29.1977C124.497 30.0823 122.769 30.5246 120.486 30.5246C119.622 30.5246 118.819 30.4629 118.079 30.3394C117.338 30.216 116.7 30.0309 116.166 29.784C115.651 29.5166 115.24 29.1874 114.931 28.7966C114.643 28.4057 114.499 27.9429 114.499 27.408C114.499 26.9143 114.602 26.5029 114.808 26.1737C115.014 25.824 115.26 25.536 115.548 25.3097C116.145 25.6389 116.824 25.9371 117.585 26.2046C118.367 26.4514 119.262 26.5749 120.27 26.5749C120.907 26.5749 121.391 26.4823 121.72 26.2971C122.07 26.112 122.244 25.8651 122.244 25.5566C122.244 25.2686 122.121 25.0423 121.874 24.8777C121.627 24.7131 121.216 24.5794 120.64 24.4766L119.714 24.2914C117.924 23.9417 116.587 23.3966 115.703 22.656C114.839 21.8949 114.407 20.8149 114.407 19.416C114.407 18.6549 114.571 17.9657 114.9 17.3486C115.23 16.7314 115.692 16.2171 116.289 15.8057C116.886 15.3943 117.595 15.0754 118.418 14.8491C119.262 14.6229 120.187 14.5097 121.195 14.5097C121.956 14.5097 122.666 14.5714 123.324 14.6949C124.003 14.7977 124.59 14.9623 125.083 15.1886C125.577 15.4149 125.968 15.7131 126.256 16.0834C126.544 16.4331 126.688 16.8549 126.688 17.3486C126.688 17.8217 126.595 18.2331 126.41 18.5829C126.246 18.912 126.03 19.1897 125.762 19.416C125.598 19.3131 125.351 19.2103 125.022 19.1074C124.692 18.984 124.332 18.8811 123.942 18.7989C123.551 18.696 123.15 18.6137 122.738 18.552C122.347 18.4903 121.987 18.4594 121.658 18.4594C120.979 18.4594 120.455 18.5417 120.084 18.7063C119.714 18.8503 119.529 19.0869 119.529 19.416C119.529 19.6423 119.632 19.8274 119.838 19.9714C120.043 20.1154 120.434 20.2491 121.01 20.3726L121.967 20.5886C123.942 21.0411 125.34 21.6686 126.163 22.4709C127.007 23.2526 127.428 24.2709 127.428 25.5257ZM138.57 18.6754C138.056 18.6754 137.562 18.7577 137.089 18.9223C136.636 19.0869 136.235 19.3337 135.885 19.6629C135.556 19.9714 135.289 20.3623 135.083 20.8354C134.877 21.3086 134.775 21.864 134.775 22.5017C134.775 23.7771 135.135 24.7337 135.855 25.3714C136.595 26.0091 137.49 26.328 138.539 26.328C139.156 26.328 139.691 26.256 140.144 26.112C140.596 25.968 140.997 25.8137 141.347 25.6491C141.759 25.9371 142.067 26.256 142.273 26.6057C142.479 26.9349 142.581 27.336 142.581 27.8091C142.581 28.6526 142.18 29.3109 141.378 29.784C140.576 30.2366 139.465 30.4629 138.045 30.4629C136.749 30.4629 135.577 30.2777 134.528 29.9074C133.479 29.5166 132.573 28.9817 131.812 28.3029C131.072 27.6034 130.496 26.7703 130.084 25.8034C129.673 24.8366 129.467 23.7669 129.467 22.5943C129.467 21.2366 129.683 20.0537 130.115 19.0457C130.568 18.0171 131.175 17.1737 131.936 16.5154C132.697 15.8571 133.571 15.3634 134.559 15.0343C135.567 14.7051 136.626 14.5406 137.737 14.5406C139.218 14.5406 140.36 14.808 141.162 15.3429C141.964 15.8777 142.365 16.5669 142.365 17.4103C142.365 17.8011 142.273 18.1714 142.088 18.5211C141.903 18.8503 141.687 19.1383 141.44 19.3851C141.09 19.2206 140.668 19.0663 140.175 18.9223C139.681 18.7577 139.146 18.6754 138.57 18.6754ZM150.458 29.9691C150.252 30.0309 149.923 30.0926 149.471 30.1543C149.039 30.216 148.586 30.2469 148.113 30.2469C147.66 30.2469 147.249 30.216 146.879 30.1543C146.529 30.0926 146.231 29.9691 145.984 29.784C145.737 29.5989 145.541 29.352 145.397 29.0434C145.274 28.7143 145.212 28.2926 145.212 27.7783V18.5211C145.212 18.048 145.295 17.6469 145.459 17.3177C145.644 16.968 145.901 16.6594 146.231 16.392C146.56 16.1246 146.961 15.888 147.434 15.6823C147.928 15.456 148.452 15.2606 149.008 15.096C149.563 14.9314 150.139 14.808 150.736 14.7257C151.332 14.6229 151.929 14.5714 152.525 14.5714C153.513 14.5714 154.295 14.7669 154.871 15.1577C155.447 15.528 155.735 16.1451 155.735 17.0091C155.735 17.2971 155.693 17.5851 155.611 17.8731C155.529 18.1406 155.426 18.3874 155.303 18.6137C154.871 18.6137 154.428 18.6343 153.976 18.6754C153.523 18.7166 153.081 18.7783 152.649 18.8606C152.217 18.9429 151.805 19.0354 151.415 19.1383C151.044 19.2206 150.725 19.3234 150.458 19.4469V29.9691ZM157.775 10.8377C157.775 10.056 158.032 9.39771 158.547 8.86285C159.082 8.328 159.781 8.06057 160.645 8.06057C161.509 8.06057 162.198 8.328 162.712 8.86285C163.247 9.39771 163.515 10.056 163.515 10.8377C163.515 11.6194 163.247 12.2777 162.712 12.8126C162.198 13.3474 161.509 13.6149 160.645 13.6149C159.781 13.6149 159.082 13.3474 158.547 12.8126C158.032 12.2777 157.775 11.6194 157.775 10.8377ZM163.268 29.9691C163.042 30.0103 162.702 30.0617 162.25 30.1234C161.818 30.2057 161.375 30.2469 160.923 30.2469C160.47 30.2469 160.059 30.216 159.688 30.1543C159.339 30.0926 159.04 29.9691 158.794 29.784C158.547 29.5989 158.351 29.352 158.207 29.0434C158.084 28.7143 158.022 28.2926 158.022 27.7783V15.2194C158.248 15.1783 158.578 15.1269 159.01 15.0651C159.462 14.9829 159.915 14.9417 160.367 14.9417C160.82 14.9417 161.221 14.9726 161.571 15.0343C161.941 15.096 162.25 15.2194 162.496 15.4046C162.743 15.5897 162.928 15.8469 163.052 16.176C163.196 16.4846 163.268 16.896 163.268 17.4103V29.9691ZM173.489 14.5406C174.723 14.5406 175.865 14.7051 176.914 15.0343C177.983 15.3429 178.899 15.8263 179.66 16.4846C180.421 17.1429 181.018 17.976 181.45 18.984C181.882 19.9714 182.098 21.1543 182.098 22.5326C182.098 23.8491 181.913 25.0011 181.542 25.9886C181.172 26.976 180.647 27.8091 179.969 28.488C179.29 29.1463 178.467 29.64 177.5 29.9691C176.554 30.2983 175.494 30.4629 174.322 30.4629C173.437 30.4629 172.614 30.3291 171.853 30.0617V35.184C171.647 35.2457 171.318 35.3074 170.866 35.3691C170.413 35.4514 169.95 35.4926 169.477 35.4926C169.025 35.4926 168.613 35.4617 168.243 35.4C167.893 35.3383 167.595 35.2149 167.348 35.0297C167.101 34.8446 166.916 34.5874 166.793 34.2583C166.669 33.9497 166.607 33.5383 166.607 33.024V18.2126C166.607 17.6571 166.721 17.2046 166.947 16.8549C167.194 16.5051 167.523 16.1863 167.934 15.8983C168.572 15.4869 169.364 15.1577 170.31 14.9109C171.257 14.664 172.316 14.5406 173.489 14.5406ZM173.55 26.328C175.669 26.328 176.729 25.0629 176.729 22.5326C176.729 21.216 176.461 20.2389 175.926 19.6011C175.412 18.9634 174.661 18.6446 173.674 18.6446C173.283 18.6446 172.933 18.696 172.625 18.7989C172.316 18.8811 172.049 18.984 171.822 19.1074V25.896C172.069 26.0194 172.337 26.1223 172.625 26.2046C172.913 26.2869 173.221 26.328 173.55 26.328ZM189.903 24.8469C189.903 25.3817 190.068 25.7623 190.397 25.9886C190.747 26.2149 191.23 26.328 191.847 26.328C192.156 26.328 192.475 26.3074 192.804 26.2663C193.133 26.2046 193.421 26.1326 193.668 26.0503C193.853 26.2766 194.007 26.5337 194.131 26.8217C194.275 27.0891 194.347 27.4183 194.347 27.8091C194.347 28.5909 194.048 29.2286 193.452 29.7223C192.876 30.216 191.847 30.4629 190.366 30.4629C188.556 30.4629 187.157 30.0514 186.17 29.2286C185.203 28.4057 184.719 27.0686 184.719 25.2171V12.0103C184.946 11.9486 185.264 11.8869 185.676 11.8251C186.108 11.7429 186.56 11.7017 187.034 11.7017C187.939 11.7017 188.638 11.8663 189.132 12.1954C189.646 12.504 189.903 13.1726 189.903 14.2011V16.176H193.946C194.069 16.4023 194.182 16.6903 194.285 17.04C194.408 17.3691 194.47 17.7394 194.47 18.1509C194.47 18.8709 194.306 19.3954 193.976 19.7246C193.668 20.0331 193.246 20.1874 192.711 20.1874H189.903V24.8469Z" fill="#4E728C"/>
<path d="M201 44H49C35.76 44 25 54.76 25 68V220C25 233.24 35.76 244 49 244H201C214.24 244 225 233.24 225 220V68C225 54.76 214.24 44 201 44ZM180.52 224C169.48 224 161.12 219.56 155.72 210.84L162.76 206C166.12 211 171.16 216.4 180.12 216.4C190.4 216.4 195 210.04 195 203.72C195 194.72 188.16 191.64 180.88 188.4L176.6 186.52C163.28 180.72 158.32 174.52 158.32 163.68C158.32 152.2 166.84 144.48 179.52 144.48C188.16 144.48 194.04 147.16 198.48 153.36L191.72 157.8C188.52 153.68 184.64 151.8 179.52 151.8C172.44 151.8 167.28 156.64 167.28 163.32C167.28 171.32 172.88 174.4 180.24 177.68L184.56 179.56C200.04 186.36 205 192.16 205 203.52C205 218.6 192.36 224 180.52 224ZM106.08 224C95.44 224 86.96 217.88 82.4 211L90.48 206.2C94.28 211.04 99.24 213.56 105 213.56C113.96 213.56 118.32 208.6 118.32 198.4V144.48H129V201.2C129 220.04 116.56 224 106.08 224Z" fill="#F6D397"/>
<path d="M124.493 44.0585H202.495C214.645 44.0585 224.495 53.9083 224.495 66.0585V222.063C224.495 234.213 214.645 244.063 202.495 244.063H124.493V44.0585Z" fill="#F9E3AE"/>
<path d="M202.696 248H47.308C32.804 248 21 236.196 21 221.692V66.308C21 51.804 32.804 40 47.308 40H202.696C217.2 40 229 51.8 229 66.304V221.7C229 236.2 217.2 248 202.696 248ZM47.308 48C37.212 48 29 56.212 29 66.308V221.692C29 231.788 37.212 240 47.308 240H202.696C212.788 240 221 231.788 221 221.696V66.304C221 56.212 212.788 48 202.696 48H47.308Z" fill="#4E728C"/>
<path d="M62.8473 134.606L67.352 142.837L75.5827 147.341L67.352 151.846L62.8473 160.077L58.3426 151.846L50.1119 147.341L58.3426 142.837L62.8473 134.606ZM179.293 196.464L182.48 202.322L188.382 205.568L182.48 208.755L179.293 214.657L176.047 208.755L170.189 205.568L176.047 202.322L179.293 196.464ZM197.493 109.135L199.425 112.635L202.937 114.586L199.422 116.511L197.493 120.051L195.536 116.511L192.021 114.586L195.536 112.635L197.493 109.135Z" fill="#FFF8F8"/>
<path d="M187.76 172.24L183.48 170.36C175.96 167.04 175.28 165.84 175.28 163.32C175.28 161.12 176.88 159.8 179.52 159.8C182.48 159.8 184.56 160.68 187.08 165.24C187.6 166.24 188.52 166.96 189.6 167.2C190.68 167.48 191.84 167.28 192.76 166.68L206.16 157.88C207.92 156.72 208.48 154.44 207.44 152.6C201.32 141.6 192.44 136.48 179.52 136.48C162.6 136.48 150.32 147.92 150.32 163.68C150.32 181.4 162 188.88 173.36 193.84L177.64 195.72C186.08 199.48 187 200.68 187 203.72C187 207.6 183.24 208.4 180.12 208.4C173.92 208.4 170.92 204.2 167.4 198.32C166.84 197.36 165.88 196.68 164.8 196.44C163.76 196.2 162.6 196.44 161.72 197.04L148.2 206.28C146.56 207.4 145.96 209.56 146.84 211.36C153.56 224.84 165.2 232 180.52 232C200.24 232 213 220.8 213 203.52C213 186.68 203.32 179.04 187.76 172.24ZM180.52 224C169.48 224 161.12 219.56 155.72 210.84L162.76 206C166.12 211 171.16 216.4 180.12 216.4C190.4 216.4 195 210.04 195 203.72C195 194.72 188.16 191.64 180.88 188.4L176.6 186.52C163.28 180.72 158.32 174.52 158.32 163.68C158.32 152.2 166.84 144.48 179.52 144.48C188.16 144.48 194.04 147.16 198.48 153.36L191.72 157.8C188.52 153.68 184.64 151.8 179.52 151.8C172.44 151.8 167.28 156.64 167.28 163.32C167.28 171.32 172.88 174.4 180.24 177.68L184.56 179.56C200.04 186.36 205 192.16 205 203.52C205 218.6 192.36 224 180.52 224Z" fill="#4E728C"/>
<path d="M205 203.52C205 218.6 192.36 224 180.52 224C169.48 224 161.12 219.56 155.72 210.84L162.76 206C166.12 211 171.16 216.4 180.12 216.4C190.4 216.4 195 210.04 195 203.72C195 194.72 188.16 191.64 180.88 188.4L176.6 186.52C163.28 180.72 158.32 174.52 158.32 163.68C158.32 152.2 166.84 144.48 179.52 144.48C188.16 144.48 194.04 147.16 198.48 153.36L191.72 157.8C188.52 153.68 184.64 151.8 179.52 151.8C172.44 151.8 167.28 156.64 167.28 163.32C167.28 171.32 172.88 174.4 180.24 177.68L184.56 179.56C200.04 186.36 205 192.16 205 203.52Z" fill="#FAEFDE"/>
<path d="M133 136.48H114.32C112.12 136.48 110.32 138.28 110.32 140.48V198.4C110.32 205.56 108.2 205.56 105 205.56C101 205.56 97.68 203.32 95.16 198.84C94.6 197.88 93.72 197.2 92.68 196.92C91.64 196.68 90.52 196.84 89.6 197.36L74.96 206.12C73.16 207.2 72.52 209.44 73.4 211.28C77.96 220.84 89.28 232 106.08 232C125.44 232 137 220.48 137 201.2V140.48C137 138.28 135.2 136.48 133 136.48ZM129 201.2C129 220.04 116.56 224 106.08 224C95.44 224 86.96 217.88 82.4 211L90.48 206.2C94.28 211.04 99.24 213.56 105 213.56C113.96 213.56 118.32 208.6 118.32 198.4V144.48H129V201.2Z" fill="#4E728C"/>
<path d="M129 144.48V201.2C129 220.04 116.56 224 106.08 224C95.44 224 86.96 217.88 82.4 211L90.48 206.2C94.28 211.04 99.24 213.56 105 213.56C113.96 213.56 118.32 208.6 118.32 198.4V144.48H129Z" fill="#FAEFDE"/>
<path d="M65 54.2049C62.792 54.2049 61 55.9969 61 58.2049V66.2049C61 68.4129 62.792 70.2049 65 70.2049C67.208 70.2049 69 68.4129 69 66.2049V58.2049C69 55.9969 67.208 54.2049 65 54.2049ZM45 54.2049C42.792 54.2049 41 55.9969 41 58.2049V66.2049C41 68.4129 42.792 70.2049 45 70.2049C47.208 70.2049 49 68.4129 49 66.2049V58.2049C49 55.9969 47.208 54.2049 45 54.2049ZM125 54.2049C122.792 54.2049 121 55.9969 121 58.2049V66.2049C121 68.4129 122.792 70.2049 125 70.2049C127.208 70.2049 129 68.4129 129 66.2049V58.2049C129 55.9969 127.208 54.2049 125 54.2049ZM145 54.2049C142.792 54.2049 141 55.9969 141 58.2049V66.2049C141 68.4129 142.792 70.2049 145 70.2049C147.208 70.2049 149 68.4129 149 66.2049V58.2049C149 55.9969 147.208 54.2049 145 54.2049ZM165 54.2049C162.792 54.2049 161 55.9969 161 58.2049V66.2049C161 68.4129 162.792 70.2049 165 70.2049C167.208 70.2049 169 68.4129 169 66.2049V58.2049C169 55.9969 167.208 54.2049 165 54.2049ZM185 54.2049C182.792 54.2049 181 55.9969 181 58.2049V66.2049C181 68.4129 182.792 70.2049 185 70.2049C187.208 70.2049 189 68.4129 189 66.2049V58.2049C189 55.9969 187.208 54.2049 185 54.2049ZM205 54.2049C202.792 54.2049 201 55.9969 201 58.2049V66.2049C201 68.4129 202.792 70.2049 205 70.2049C207.208 70.2049 209 68.4129 209 66.2049V58.2049C209 55.9969 207.208 54.2049 205 54.2049ZM85 54.2049C82.792 54.2049 81 55.9969 81 58.2049V66.2049C81 68.4129 82.792 70.2049 85 70.2049C87.208 70.2049 89 68.4129 89 66.2049V58.2049C89 55.9969 87.208 54.2049 85 54.2049ZM105 54.2049C102.792 54.2049 101 55.9969 101 58.2049V66.2049C101 68.4129 102.792 70.2049 105 70.2049C107.208 70.2049 109 68.4129 109 66.2049V58.2049C109 55.9969 107.208 54.2049 105 54.2049Z" fill="#4E728C"/>
</svg>
