<svg xmlns="http://www.w3.org/2000/svg"  viewBox="0 0 80 80" width="480px" height="480px"><path fill="#bae0bd" d="M29.5,75.5L29.5,75.5c-6.627,0-12-5.373-12-12l0,0c0-6.627,5.373-12,12-12h12v12 C41.5,70.127,36.127,75.5,29.5,75.5z"/><path fill="#bdc9f2" d="M30,28.5c-6.351,0-11.5,5.149-11.5,11.5S23.649,51.5,30,51.5h11.5v-23H30z"/><circle cx="53.493" cy="40.507" r="11.007" fill="#c2fbff"/><path fill="#f78fae" d="M53,28.5c6.351,0,11.5-5.149,11.5-11.5S59.351,5.5,53,5.5H41.5v23H53z"/><path fill="#f78f8f" d="M30,5.5c-6.351,0-11.5,5.149-11.5,11.5S23.649,28.5,30,28.5h11.5v-23H30z"/><path fill="none" stroke="#5e9c76" stroke-linecap="round" stroke-linejoin="round" stroke-miterlimit="10" d="M29.5,75.5L29.5,75.5 c-6.627,0-12-5.373-12-12l0,0c0-6.627,5.373-12,12-12h12v12C41.5,70.127,36.127,75.5,29.5,75.5z"/><path fill="none" stroke="#7575a1" stroke-linecap="round" stroke-linejoin="round" stroke-miterlimit="10" d="M30,28.5 c-6.351,0-11.5,5.149-11.5,11.5S23.649,51.5,30,51.5h11.5v-23H30z"/><circle cx="53.493" cy="40.507" r="11.007" fill="none" stroke="#689dba" stroke-linecap="round" stroke-linejoin="round" stroke-miterlimit="10"/><path fill="none" stroke="#c7435b" stroke-linecap="round" stroke-linejoin="round" stroke-miterlimit="10" d="M53,28.5 c6.351,0,11.5-5.149,11.5-11.5S59.351,5.5,53,5.5H41.5v23H53z"/><path fill="none" stroke="#c74343" stroke-linecap="round" stroke-linejoin="round" stroke-miterlimit="10" d="M30,5.5 c-6.351,0-11.5,5.149-11.5,11.5S23.649,28.5,30,28.5h11.5v-23H30z"/></svg>