<svg width="250" height="250" viewBox="0 0 250 250" fill="none" xmlns="http://www.w3.org/2000/svg">
<path d="M48.1985 24.8469C48.1985 25.3817 48.3631 25.7623 48.6922 25.9886C49.0419 26.2149 49.5254 26.328 50.1425 26.328C50.4511 26.328 50.7699 26.3074 51.0991 26.2663C51.4282 26.2046 51.7162 26.1326 51.9631 26.0503C52.1482 26.2766 52.3025 26.5337 52.4259 26.8217C52.5699 27.0891 52.6419 27.4183 52.6419 27.8091C52.6419 28.5909 52.3436 29.2286 51.7471 29.7223C51.1711 30.216 50.1425 30.4629 48.6614 30.4629C46.8511 30.4629 45.4522 30.0514 44.4648 29.2286C43.4979 28.4057 43.0145 27.0686 43.0145 25.2171V12.0103C43.2408 11.9486 43.5596 11.8869 43.9711 11.8251C44.4031 11.7429 44.8556 11.7017 45.3288 11.7017C46.2339 11.7017 46.9334 11.8663 47.4271 12.1954C47.9414 12.504 48.1985 13.1726 48.1985 14.2011V16.176H52.2408C52.3642 16.4023 52.4774 16.6903 52.5802 17.04C52.7036 17.3691 52.7654 17.7394 52.7654 18.1509C52.7654 18.8709 52.6008 19.3954 52.2716 19.7246C51.9631 20.0331 51.5414 20.1874 51.0065 20.1874H48.1985V24.8469ZM61.726 26.6674C62.0757 26.6674 62.4563 26.6366 62.8677 26.5749C63.2997 26.4926 63.6186 26.3897 63.8243 26.2663V23.7977L61.6026 23.9829C61.0266 24.024 60.5534 24.1474 60.1831 24.3531C59.8128 24.5589 59.6277 24.8674 59.6277 25.2789C59.6277 25.6903 59.782 26.0297 60.0906 26.2971C60.4197 26.544 60.9648 26.6674 61.726 26.6674ZM61.4791 14.5406C62.59 14.5406 63.598 14.6537 64.5031 14.88C65.4288 15.1063 66.2106 15.456 66.8483 15.9291C67.5066 16.3817 68.0106 16.968 68.3603 17.688C68.71 18.3874 68.8848 19.2206 68.8848 20.1874V27.0994C68.8848 27.6343 68.7306 28.0766 68.422 28.4263C68.134 28.7554 67.7843 29.0434 67.3728 29.2903C66.0357 30.0926 64.1534 30.4937 61.726 30.4937C60.6357 30.4937 59.6483 30.3909 58.7637 30.1851C57.8997 29.9794 57.1488 29.6709 56.5111 29.2594C55.894 28.848 55.4106 28.3234 55.0608 27.6857C54.7317 27.048 54.5671 26.3074 54.5671 25.464C54.5671 24.0446 54.9888 22.9543 55.8323 22.1931C56.6757 21.432 57.982 20.9589 59.7511 20.7737L63.7934 20.3417V20.1257C63.7934 19.5291 63.526 19.1074 62.9911 18.8606C62.4768 18.5931 61.726 18.4594 60.7386 18.4594C59.9568 18.4594 59.1957 18.5417 58.4551 18.7063C57.7146 18.8709 57.046 19.0766 56.4494 19.3234C56.182 19.1383 55.9557 18.8606 55.7706 18.4903C55.5854 18.0994 55.4928 17.6983 55.4928 17.2869C55.4928 16.752 55.6163 16.3303 55.8631 16.0217C56.1306 15.6926 56.5317 15.4149 57.0666 15.1886C57.6631 14.9623 58.3626 14.7977 59.1648 14.6949C59.9877 14.592 60.7591 14.5406 61.4791 14.5406ZM71.9689 10.8377C71.9689 10.056 72.226 9.39771 72.7403 8.86285C73.2752 8.328 73.9746 8.06057 74.8386 8.06057C75.7026 8.06057 76.3917 8.328 76.906 8.86285C77.4409 9.39771 77.7083 10.056 77.7083 10.8377C77.7083 11.6194 77.4409 12.2777 76.906 12.8126C76.3917 13.3474 75.7026 13.6149 74.8386 13.6149C73.9746 13.6149 73.2752 13.3474 72.7403 12.8126C72.226 12.2777 71.9689 11.6194 71.9689 10.8377ZM77.4614 29.9691C77.2352 30.0103 76.8957 30.0617 76.4432 30.1234C76.0112 30.2057 75.5689 30.2469 75.1163 30.2469C74.6637 30.2469 74.2523 30.216 73.882 30.1543C73.5323 30.0926 73.234 29.9691 72.9872 29.784C72.7403 29.5989 72.5449 29.352 72.4009 29.0434C72.2774 28.7143 72.2157 28.2926 72.2157 27.7783V15.2194C72.442 15.1783 72.7712 15.1269 73.2032 15.0651C73.6557 14.9829 74.1083 14.9417 74.5609 14.9417C75.0134 14.9417 75.4146 14.9726 75.7643 15.0343C76.1346 15.096 76.4432 15.2194 76.69 15.4046C76.9369 15.5897 77.122 15.8469 77.2454 16.176C77.3894 16.4846 77.4614 16.896 77.4614 17.4103V29.9691ZM86.1393 29.9691C85.913 30.0103 85.5736 30.0617 85.121 30.1234C84.689 30.2057 84.2467 30.2469 83.7941 30.2469C83.3416 30.2469 82.9301 30.216 82.5599 30.1543C82.2101 30.0926 81.9119 29.9691 81.665 29.784C81.4181 29.5989 81.2227 29.352 81.0787 29.0434C80.9553 28.7143 80.8936 28.2926 80.8936 27.7783V9.88114C81.1199 9.84 81.449 9.78857 81.881 9.72686C82.3336 9.64457 82.7861 9.60343 83.2387 9.60343C83.6913 9.60343 84.0924 9.63428 84.4421 9.696C84.8124 9.75771 85.121 9.88114 85.3679 10.0663C85.6147 10.2514 85.7999 10.5086 85.9233 10.8377C86.0673 11.1463 86.1393 11.5577 86.1393 12.072V29.9691ZM97.9969 29.5371C97.7089 29.784 97.318 29.9794 96.8243 30.1234C96.3306 30.288 95.7443 30.3703 95.0654 30.3703C94.222 30.3703 93.4917 30.2469 92.8746 30C92.2574 29.7737 91.846 29.4446 91.6403 29.0126C91.414 28.5189 91.1466 27.7371 90.838 26.6674C90.55 25.5977 90.262 24.4251 89.974 23.1497C89.686 21.8743 89.4083 20.5783 89.1409 19.2617C88.894 17.9451 88.6986 16.7829 88.5546 15.7749C88.8426 15.4869 89.2231 15.24 89.6963 15.0343C90.19 14.808 90.7249 14.6949 91.3009 14.6949C92.0209 14.6949 92.6071 14.8594 93.0597 15.1886C93.5329 15.4971 93.8209 16.0423 93.9237 16.824C94.1294 18.3874 94.3043 19.6834 94.4483 20.712C94.5923 21.72 94.7054 22.5531 94.7877 23.2114C94.8906 23.8491 94.9626 24.3429 95.0037 24.6926C95.0654 25.0217 95.1169 25.2891 95.158 25.4949H95.2814C95.3432 25.1657 95.446 24.6926 95.59 24.0754C95.7546 23.4377 95.9397 22.7177 96.1454 21.9154C96.3512 21.1131 96.5672 20.2491 96.7934 19.3234C97.0197 18.3771 97.246 17.4411 97.4723 16.5154C97.8837 16.2891 98.2849 16.1143 98.6757 15.9909C99.0872 15.8674 99.5912 15.8057 100.188 15.8057C100.908 15.8057 101.525 15.9189 102.039 16.1451C102.553 16.3714 102.883 16.7211 103.027 17.1943C103.273 18.0994 103.51 18.984 103.736 19.848C103.963 20.6914 104.168 21.4834 104.353 22.224C104.539 22.944 104.703 23.592 104.847 24.168C104.991 24.7234 105.094 25.1657 105.156 25.4949H105.31C105.536 23.9109 105.752 22.2651 105.958 20.5577C106.184 18.8503 106.39 17.112 106.575 15.3429C106.945 15.1166 107.336 14.952 107.748 14.8491C108.159 14.7463 108.571 14.6949 108.982 14.6949C109.702 14.6949 110.299 14.8491 110.772 15.1577C111.245 15.4663 111.481 16.0011 111.481 16.7623C111.481 17.0914 111.43 17.5851 111.327 18.2434C111.224 18.9017 111.091 19.6423 110.926 20.4651C110.761 21.288 110.566 22.152 110.34 23.0571C110.134 23.9623 109.918 24.8366 109.692 25.68C109.486 26.5234 109.28 27.2846 109.075 27.9634C108.889 28.6423 108.725 29.1669 108.581 29.5371C108.293 29.784 107.851 29.9794 107.254 30.1234C106.657 30.288 106.02 30.3703 105.341 30.3703C103.613 30.3703 102.595 29.9383 102.286 29.0743C102.163 28.704 102.008 28.2411 101.823 27.6857C101.638 27.1097 101.443 26.4823 101.237 25.8034C101.031 25.1246 100.836 24.4251 100.651 23.7051C100.465 22.9646 100.311 22.2549 100.188 21.576C100.044 22.296 99.8689 23.0469 99.6632 23.8286C99.4574 24.5897 99.2414 25.3406 99.0152 26.0811C98.8094 26.8011 98.614 27.4697 98.4289 28.0869C98.2437 28.6834 98.0997 29.1669 97.9969 29.5371ZM113.734 10.8377C113.734 10.056 113.992 9.39771 114.506 8.86285C115.041 8.328 115.74 8.06057 116.604 8.06057C117.468 8.06057 118.157 8.328 118.672 8.86285C119.206 9.39771 119.474 10.056 119.474 10.8377C119.474 11.6194 119.206 12.2777 118.672 12.8126C118.157 13.3474 117.468 13.6149 116.604 13.6149C115.74 13.6149 115.041 13.3474 114.506 12.8126C113.992 12.2777 113.734 11.6194 113.734 10.8377ZM119.227 29.9691C119.001 30.0103 118.661 30.0617 118.209 30.1234C117.777 30.2057 117.334 30.2469 116.882 30.2469C116.429 30.2469 116.018 30.216 115.648 30.1543C115.298 30.0926 115 29.9691 114.753 29.784C114.506 29.5989 114.31 29.352 114.166 29.0434C114.043 28.7143 113.981 28.2926 113.981 27.7783V15.2194C114.208 15.1783 114.537 15.1269 114.969 15.0651C115.421 14.9829 115.874 14.9417 116.326 14.9417C116.779 14.9417 117.18 14.9726 117.53 15.0343C117.9 15.096 118.209 15.2194 118.456 15.4046C118.702 15.5897 118.888 15.8469 119.011 16.176C119.155 16.4846 119.227 16.896 119.227 17.4103V29.9691ZM132.071 20.496C132.071 19.8583 131.885 19.3954 131.515 19.1074C131.165 18.7989 130.682 18.6446 130.065 18.6446C129.653 18.6446 129.242 18.696 128.831 18.7989C128.44 18.9017 128.1 19.056 127.812 19.2617V29.9691C127.607 30.0309 127.277 30.0926 126.825 30.1543C126.393 30.216 125.94 30.2469 125.467 30.2469C125.015 30.2469 124.603 30.216 124.233 30.1543C123.883 30.0926 123.585 29.9691 123.338 29.784C123.091 29.5989 122.896 29.352 122.752 29.0434C122.628 28.7143 122.567 28.2926 122.567 27.7783V18.5211C122.567 17.9657 122.68 17.5131 122.906 17.1634C123.153 16.8137 123.482 16.4949 123.893 16.2069C124.593 15.7131 125.467 15.312 126.516 15.0034C127.586 14.6949 128.769 14.5406 130.065 14.5406C132.389 14.5406 134.179 15.0549 135.434 16.0834C136.689 17.0914 137.316 18.5006 137.316 20.3109V29.9691C137.111 30.0309 136.781 30.0926 136.329 30.1543C135.897 30.216 135.444 30.2469 134.971 30.2469C134.519 30.2469 134.107 30.216 133.737 30.1543C133.387 30.0926 133.089 29.9691 132.842 29.784C132.595 29.5989 132.4 29.352 132.256 29.0434C132.132 28.7143 132.071 28.2926 132.071 27.7783V20.496ZM139.909 22.5017C139.909 21.144 140.114 19.9714 140.526 18.984C140.937 17.976 141.503 17.1429 142.223 16.4846C142.963 15.8263 143.817 15.3429 144.784 15.0343C145.771 14.7051 146.831 14.5406 147.962 14.5406C148.374 14.5406 148.775 14.5817 149.166 14.664C149.557 14.7257 149.875 14.808 150.122 14.9109V9.912C150.328 9.85028 150.657 9.78857 151.11 9.72686C151.562 9.64457 152.025 9.60343 152.498 9.60343C152.951 9.60343 153.352 9.63428 153.702 9.696C154.072 9.75771 154.381 9.88114 154.627 10.0663C154.874 10.2514 155.059 10.5086 155.183 10.8377C155.306 11.1463 155.368 11.5577 155.368 12.072V26.6983C155.368 27.6651 154.915 28.4366 154.01 29.0126C153.414 29.4034 152.642 29.7429 151.696 30.0309C150.75 30.3394 149.659 30.4937 148.425 30.4937C147.088 30.4937 145.885 30.3086 144.815 29.9383C143.766 29.568 142.871 29.0331 142.13 28.3337C141.41 27.6343 140.855 26.8011 140.464 25.8343C140.094 24.8469 139.909 23.736 139.909 22.5017ZM148.672 18.6446C147.561 18.6446 146.707 18.9634 146.111 19.6011C145.514 20.2389 145.216 21.2057 145.216 22.5017C145.216 23.7771 145.494 24.744 146.049 25.4023C146.605 26.04 147.407 26.3589 148.456 26.3589C148.826 26.3589 149.155 26.3074 149.443 26.2046C149.752 26.0811 149.989 25.9474 150.153 25.8034V19.0149C149.742 18.768 149.248 18.6446 148.672 18.6446ZM168.573 15.0651C166.989 15.0651 165.775 15.5486 164.932 16.5154C164.088 17.4823 163.667 18.8503 163.667 20.6194C163.667 22.4091 164.13 23.7874 165.055 24.7543C166.002 25.7211 167.267 26.2046 168.851 26.2046C169.694 26.2046 170.404 26.0914 170.98 25.8651C171.576 25.6389 172.142 25.3817 172.677 25.0937C173.027 25.3817 173.294 25.7314 173.479 26.1429C173.685 26.5337 173.788 26.9966 173.788 27.5314C173.788 28.3749 173.315 29.0949 172.368 29.6914C171.443 30.2674 170.023 30.5554 168.11 30.5554C166.732 30.5554 165.436 30.36 164.222 29.9691C163.008 29.5783 161.949 28.9817 161.044 28.1794C160.139 27.3566 159.419 26.328 158.884 25.0937C158.37 23.8389 158.112 22.3474 158.112 20.6194C158.112 19.0149 158.359 17.6057 158.853 16.392C159.367 15.1577 160.056 14.1189 160.92 13.2754C161.805 12.432 162.834 11.7943 164.006 11.3623C165.179 10.9303 166.434 10.7143 167.771 10.7143C169.663 10.7143 171.124 11.0229 172.152 11.64C173.202 12.2571 173.726 13.0491 173.726 14.016C173.726 14.5509 173.592 15.0137 173.325 15.4046C173.058 15.7954 172.749 16.104 172.399 16.3303C171.864 15.9806 171.288 15.6823 170.671 15.4354C170.075 15.1886 169.375 15.0651 168.573 15.0651ZM181.974 22.5634C181.069 22.2549 180.246 21.9463 179.505 21.6377C178.765 21.3086 178.127 20.9177 177.592 20.4651C177.057 20.0126 176.636 19.4777 176.327 18.8606C176.039 18.2229 175.895 17.4514 175.895 16.5463C175.895 14.7977 176.564 13.3989 177.901 12.3497C179.258 11.3006 181.151 10.776 183.578 10.776C184.463 10.776 185.286 10.8377 186.047 10.9611C186.808 11.0846 187.456 11.28 187.991 11.5474C188.546 11.7943 188.978 12.1234 189.287 12.5349C189.596 12.9257 189.75 13.3886 189.75 13.9234C189.75 14.4583 189.626 14.9211 189.38 15.312C189.133 15.6823 188.834 16.0011 188.485 16.2686C188.032 15.9806 187.425 15.7337 186.664 15.528C185.903 15.3017 185.07 15.1886 184.165 15.1886C183.239 15.1886 182.56 15.3223 182.128 15.5897C181.696 15.8366 181.48 16.1554 181.48 16.5463C181.48 16.8549 181.614 17.112 181.881 17.3177C182.149 17.5029 182.55 17.6777 183.085 17.8423L184.72 18.3669C186.654 18.984 188.135 19.776 189.164 20.7429C190.213 21.6891 190.737 22.9851 190.737 24.6309C190.737 26.3794 190.048 27.7989 188.67 28.8891C187.292 29.9589 185.265 30.4937 182.591 30.4937C181.645 30.4937 180.76 30.4114 179.937 30.2469C179.135 30.1029 178.425 29.8869 177.808 29.5989C177.212 29.2903 176.738 28.92 176.389 28.488C176.06 28.0354 175.895 27.5211 175.895 26.9451C175.895 26.3486 176.07 25.8446 176.42 25.4331C176.769 25.0011 177.15 24.672 177.561 24.4457C178.137 24.8983 178.837 25.2891 179.66 25.6183C180.503 25.9474 181.418 26.112 182.406 26.112C183.414 26.112 184.124 25.9577 184.535 25.6491C184.946 25.3406 185.152 24.9806 185.152 24.5691C185.152 24.1577 184.988 23.8491 184.658 23.6434C184.329 23.4171 183.866 23.2011 183.27 22.9954L181.974 22.5634ZM198.969 22.5634C198.064 22.2549 197.241 21.9463 196.501 21.6377C195.76 21.3086 195.123 20.9177 194.588 20.4651C194.053 20.0126 193.631 19.4777 193.323 18.8606C193.035 18.2229 192.891 17.4514 192.891 16.5463C192.891 14.7977 193.559 13.3989 194.896 12.3497C196.254 11.3006 198.147 10.776 200.574 10.776C201.459 10.776 202.281 10.8377 203.043 10.9611C203.804 11.0846 204.452 11.28 204.987 11.5474C205.542 11.7943 205.974 12.1234 206.283 12.5349C206.591 12.9257 206.745 13.3886 206.745 13.9234C206.745 14.4583 206.622 14.9211 206.375 15.312C206.128 15.6823 205.83 16.0011 205.48 16.2686C205.028 15.9806 204.421 15.7337 203.66 15.528C202.899 15.3017 202.065 15.1886 201.16 15.1886C200.235 15.1886 199.556 15.3223 199.124 15.5897C198.692 15.8366 198.476 16.1554 198.476 16.5463C198.476 16.8549 198.609 17.112 198.877 17.3177C199.144 17.5029 199.545 17.6777 200.08 17.8423L201.716 18.3669C203.649 18.984 205.131 19.776 206.159 20.7429C207.208 21.6891 207.733 22.9851 207.733 24.6309C207.733 26.3794 207.044 27.7989 205.665 28.8891C204.287 29.9589 202.261 30.4937 199.587 30.4937C198.64 30.4937 197.756 30.4114 196.933 30.2469C196.131 30.1029 195.421 29.8869 194.804 29.5989C194.207 29.2903 193.734 28.92 193.384 28.488C193.055 28.0354 192.891 27.5211 192.891 26.9451C192.891 26.3486 193.065 25.8446 193.415 25.4331C193.765 25.0011 194.145 24.672 194.557 24.4457C195.133 24.8983 195.832 25.2891 196.655 25.6183C197.499 25.9474 198.414 26.112 199.401 26.112C200.409 26.112 201.119 25.9577 201.531 25.6491C201.942 25.3406 202.148 24.9806 202.148 24.5691C202.148 24.1577 201.983 23.8491 201.654 23.6434C201.325 23.4171 200.862 23.2011 200.265 22.9954L198.969 22.5634Z" fill="#4E728C"/>
<path d="M202 44H50C36.76 44 26 54.76 26 68V220C26 233.24 36.76 244 50 244H202C215.24 244 226 233.24 226 220V68C226 54.76 215.24 44 202 44Z" fill="#79D1F8"/>
<path d="M124.493 44.0585H202.495C214.645 44.0585 224.495 53.9083 224.495 66.0585V222.063C224.495 234.213 214.645 244.063 202.495 244.063H124.493V44.0585Z" fill="#B4E2F7"/>
<path d="M202.696 248H47.308C32.804 248 21 236.196 21 221.692V66.308C21 51.804 32.804 40 47.308 40H202.696C217.2 40 229 51.8 229 66.304V221.7C229 236.2 217.2 248 202.696 248ZM47.308 48C37.212 48 29 56.212 29 66.308V221.692C29 231.788 37.212 240 47.308 240H202.696C212.788 240 221 231.788 221 221.696V66.304C221 56.212 212.788 48 202.696 48H47.308Z" fill="#4E728C"/>
<path d="M62.8473 134.606L67.352 142.837L75.5828 147.341L67.352 151.846L62.8473 160.077L58.3427 151.846L50.1119 147.341L58.3427 142.837L62.8473 134.606ZM179.293 196.464L182.48 202.322L188.382 205.568L182.48 208.755L179.293 214.657L176.047 208.755L170.189 205.568L176.047 202.322L179.293 196.464ZM197.493 109.135L199.426 112.635L202.937 114.586L199.422 116.511L197.493 120.051L195.536 116.511L192.021 114.586L195.536 112.635L197.493 109.135Z" fill="#FFF8F8"/>
<path d="M65 54.2049C62.792 54.2049 61 55.9969 61 58.2049V66.2049C61 68.4129 62.792 70.2049 65 70.2049C67.208 70.2049 69 68.4129 69 66.2049V58.2049C69 55.9969 67.208 54.2049 65 54.2049ZM45 54.2049C42.792 54.2049 41 55.9969 41 58.2049V66.2049C41 68.4129 42.792 70.2049 45 70.2049C47.208 70.2049 49 68.4129 49 66.2049V58.2049C49 55.9969 47.208 54.2049 45 54.2049ZM125 54.2049C122.792 54.2049 121 55.9969 121 58.2049V66.2049C121 68.4129 122.792 70.2049 125 70.2049C127.208 70.2049 129 68.4129 129 66.2049V58.2049C129 55.9969 127.208 54.2049 125 54.2049ZM145 54.2049C142.792 54.2049 141 55.9969 141 58.2049V66.2049C141 68.4129 142.792 70.2049 145 70.2049C147.208 70.2049 149 68.4129 149 66.2049V58.2049C149 55.9969 147.208 54.2049 145 54.2049ZM165 54.2049C162.792 54.2049 161 55.9969 161 58.2049V66.2049C161 68.4129 162.792 70.2049 165 70.2049C167.208 70.2049 169 68.4129 169 66.2049V58.2049C169 55.9969 167.208 54.2049 165 54.2049ZM185 54.2049C182.792 54.2049 181 55.9969 181 58.2049V66.2049C181 68.4129 182.792 70.2049 185 70.2049C187.208 70.2049 189 68.4129 189 66.2049V58.2049C189 55.9969 187.208 54.2049 185 54.2049ZM205 54.2049C202.792 54.2049 201 55.9969 201 58.2049V66.2049C201 68.4129 202.792 70.2049 205 70.2049C207.208 70.2049 209 68.4129 209 66.2049V58.2049C209 55.9969 207.208 54.2049 205 54.2049ZM85 54.2049C82.792 54.2049 81 55.9969 81 58.2049V66.2049C81 68.4129 82.792 70.2049 85 70.2049C87.208 70.2049 89 68.4129 89 66.2049V58.2049C89 55.9969 87.208 54.2049 85 54.2049ZM105 54.2049C102.792 54.2049 101 55.9969 101 58.2049V66.2049C101 68.4129 102.792 70.2049 105 70.2049C107.208 70.2049 109 68.4129 109 66.2049V58.2049C109 55.9969 107.208 54.2049 105 54.2049Z" fill="#4E728C"/>
<path fill-rule="evenodd" clip-rule="evenodd" d="M125.501 115C108.833 115 98.4183 123.284 94.2494 139.852C100.5 131.568 107.792 128.462 116.125 130.532C120.879 131.712 124.279 135.141 128.039 138.938C134.167 145.12 141.261 152.275 156.751 152.275C173.416 152.275 183.834 143.991 188 127.426C181.752 135.71 174.46 138.815 166.127 136.743C161.37 135.563 157.97 132.134 154.211 128.339C148.082 122.152 140.991 115 125.501 115ZM94.2494 152.275C77.5837 152.275 67.1664 160.559 63 177.126C69.2509 168.843 76.5427 165.737 84.8731 167.807C89.6298 168.987 93.0296 172.416 96.7894 176.213C102.918 182.395 110.009 189.55 125.501 189.55C142.167 189.55 152.584 181.268 156.751 164.701C150.5 172.985 143.208 176.09 134.875 174.021C130.121 172.838 126.721 169.408 122.961 165.614C116.833 159.432 109.739 152.275 94.2494 152.275Z" fill="#38BDF8"/>
</svg>
