<svg width="484" height="385" viewBox="0 0 484 385" fill="none" xmlns="http://www.w3.org/2000/svg">
<rect x="10" y="58.6432" width="464" height="315.638" stroke="#ddd" stroke-width="20" stroke-linejoin="round"/>
<path d="M415.697 5L468.663 43.6436H16.4248L74.0166 5H415.697Z" fill="#ddd" stroke="#ddd" stroke-width="10" stroke-linejoin="round"/>
<path d="M209.079 0.396973H276.051L289 68.397H195L209.079 0.396973Z" fill="#ddd"/>
<path d="M195 121.397L289 93.397V68.397H195V121.397Z" fill="#ddd"/>
<path d="M186.916 183.628C199.274 183.628 210.235 189.603 217.074 198.819C225.653 196.051 233.791 194.495 242.277 194.527C250.727 194.559 258.827 196.166 267.33 198.878C274.165 189.627 285.148 183.628 297.533 183.628H368.643C369.321 183.628 369.996 183.645 370.666 183.677L370.615 183.628H426.912C433.9 183.814 435.633 185.724 435.8 191.529V215.232C435.8 221.381 417.053 238.466 410.125 244.951V264.615C410.125 287.525 391.553 306.097 368.643 306.097H327.162C290.07 306.097 260.002 276.028 260.002 238.937V227.657C252.641 225.175 247.196 224.175 242.165 224.156C237.16 224.137 231.743 225.088 224.446 227.595V238.937C224.446 276.028 194.377 306.097 157.286 306.097H115.804C92.8948 306.097 74.3229 287.525 74.3229 264.615V244.957C67.3979 238.475 48.6432 221.384 48.6432 215.234V191.531C48.8111 185.726 50.5439 183.816 57.5319 183.63H113.829L113.779 183.677C114.45 183.644 115.125 183.628 115.804 183.628H186.916ZM115.804 205.356C104.895 205.357 96.0515 214.2 96.0514 225.109V264.615C96.0514 275.524 104.895 284.368 115.804 284.368H157.286C182.377 284.368 202.717 264.028 202.717 238.937V221.159C202.717 212.432 195.643 205.357 186.916 205.356H115.804ZM297.533 205.356C288.805 205.356 281.73 212.432 281.73 221.159V238.937C281.73 264.028 302.07 284.368 327.162 284.368H368.643C379.552 284.368 388.396 275.525 388.396 264.615V225.109C388.396 214.2 379.552 205.356 368.643 205.356H297.533Z" fill="#ddd"/>
</svg>
