<svg width="250" height="250" viewBox="0 0 250 250" fill="none" xmlns="http://www.w3.org/2000/svg">
<path d="M89.6119 20.496C89.6119 19.8583 89.4268 19.3954 89.0565 19.1074C88.7068 18.7989 88.2233 18.6446 87.6062 18.6446C87.1948 18.6446 86.7833 18.696 86.3719 18.7989C85.9811 18.9017 85.6416 19.056 85.3536 19.2617V29.9691C85.1479 30.0309 84.8188 30.0926 84.3662 30.1543C83.9342 30.216 83.4816 30.2469 83.0085 30.2469C82.5559 30.2469 82.1445 30.216 81.7742 30.1543C81.4245 30.0926 81.1262 29.9691 80.8793 29.784C80.6325 29.5989 80.4371 29.352 80.2931 29.0434C80.1696 28.7143 80.1079 28.2926 80.1079 27.7783V18.5211C80.1079 17.9657 80.2211 17.5131 80.4473 17.1634C80.6942 16.8137 81.0233 16.4949 81.4348 16.2069C82.1342 15.7131 83.0085 15.312 84.0576 15.0034C85.1273 14.6949 86.3102 14.5406 87.6062 14.5406C89.9308 14.5406 91.7205 15.0549 92.9753 16.0834C94.2302 17.0914 94.8576 18.5006 94.8576 20.3109V29.9691C94.6519 30.0309 94.3228 30.0926 93.8702 30.1543C93.4382 30.216 92.9856 30.2469 92.5125 30.2469C92.0599 30.2469 91.6485 30.216 91.2782 30.1543C90.9285 30.0926 90.6302 29.9691 90.3833 29.784C90.1365 29.5989 89.9411 29.352 89.7971 29.0434C89.6736 28.7143 89.6119 28.2926 89.6119 27.7783V20.496ZM106.028 30.4937C104.814 30.4937 103.683 30.3291 102.634 30C101.605 29.6503 100.7 29.136 99.9184 28.4571C99.1573 27.7783 98.5504 26.9246 98.0979 25.896C97.6659 24.8674 97.4499 23.664 97.4499 22.2857C97.4499 20.928 97.6659 19.7657 98.0979 18.7989C98.5504 17.8114 99.1367 17.0091 99.8567 16.392C100.577 15.7543 101.4 15.2914 102.325 15.0034C103.251 14.6949 104.197 14.5406 105.164 14.5406C106.254 14.5406 107.242 14.7051 108.126 15.0343C109.032 15.3634 109.803 15.816 110.441 16.392C111.099 16.968 111.603 17.6571 111.953 18.4594C112.323 19.2617 112.508 20.136 112.508 21.0823C112.508 21.7817 112.313 22.3166 111.922 22.6869C111.531 23.0571 110.986 23.2937 110.286 23.3966L102.665 24.5383C102.891 25.2171 103.354 25.7314 104.053 26.0811C104.753 26.4103 105.555 26.5749 106.46 26.5749C107.304 26.5749 108.096 26.472 108.836 26.2663C109.597 26.04 110.214 25.7829 110.688 25.4949C111.017 25.7006 111.294 25.9886 111.521 26.3589C111.747 26.7291 111.86 27.12 111.86 27.5314C111.86 28.4571 111.428 29.1463 110.564 29.5989C109.906 29.9486 109.165 30.1851 108.342 30.3086C107.52 30.432 106.748 30.4937 106.028 30.4937ZM105.164 18.3669C104.67 18.3669 104.238 18.4491 103.868 18.6137C103.518 18.7783 103.23 18.9943 103.004 19.2617C102.778 19.5086 102.603 19.7966 102.48 20.1257C102.377 20.4343 102.315 20.7531 102.294 21.0823L107.571 20.2183C107.509 19.8069 107.283 19.3954 106.892 18.984C106.501 18.5726 105.925 18.3669 105.164 18.3669ZM114.049 17.4411C114.214 16.6594 114.533 16.0217 115.006 15.528C115.5 15.0343 116.106 14.7874 116.826 14.7874C117.505 14.7874 118.03 14.952 118.4 15.2811C118.77 15.6103 119.182 16.0731 119.634 16.6697L121.609 19.2617L124.911 14.7874C126.042 14.7874 126.937 14.9931 127.596 15.4046C128.254 15.7954 128.583 16.3303 128.583 17.0091C128.583 17.2766 128.542 17.5234 128.46 17.7497C128.398 17.9554 128.295 18.1714 128.151 18.3977C128.007 18.624 127.822 18.8811 127.596 19.1691C127.369 19.4571 127.102 19.7966 126.793 20.1874L124.757 22.4709L128.799 27.8091C128.696 28.5909 128.388 29.208 127.873 29.6606C127.359 30.1131 126.742 30.3394 126.022 30.3394C125.24 30.3189 124.613 30.0926 124.14 29.6606C123.687 29.2286 123.245 28.704 122.813 28.0869L121.146 25.7109L117.999 30.2469C117.896 30.2469 117.783 30.2469 117.66 30.2469C117.536 30.2674 117.433 30.2777 117.351 30.2777C116.302 30.2777 115.5 30.0617 114.944 29.6297C114.409 29.1977 114.142 28.6629 114.142 28.0251C114.142 27.5314 114.255 27.0994 114.481 26.7291C114.728 26.3383 115.14 25.8137 115.716 25.1554L118.184 22.2857L114.049 17.4411ZM136.28 24.8469C136.28 25.3817 136.445 25.7623 136.774 25.9886C137.123 26.2149 137.607 26.328 138.224 26.328C138.533 26.328 138.851 26.3074 139.181 26.2663C139.51 26.2046 139.798 26.1326 140.045 26.0503C140.23 26.2766 140.384 26.5337 140.507 26.8217C140.651 27.0891 140.723 27.4183 140.723 27.8091C140.723 28.5909 140.425 29.2286 139.829 29.7223C139.253 30.216 138.224 30.4629 136.743 30.4629C134.933 30.4629 133.534 30.0514 132.546 29.2286C131.579 28.4057 131.096 27.0686 131.096 25.2171V12.0103C131.322 11.9486 131.641 11.8869 132.053 11.8251C132.485 11.7429 132.937 11.7017 133.41 11.7017C134.315 11.7017 135.015 11.8663 135.509 12.1954C136.023 12.504 136.28 13.1726 136.28 14.2011V16.176H140.322C140.446 16.4023 140.559 16.6903 140.662 17.04C140.785 17.3691 140.847 17.7394 140.847 18.1509C140.847 18.8709 140.682 19.3954 140.353 19.7246C140.045 20.0331 139.623 20.1874 139.088 20.1874H136.28V24.8469ZM147.185 11.3006C147.411 11.2594 147.771 11.208 148.265 11.1463C148.758 11.064 149.231 11.0229 149.684 11.0229C150.157 11.0229 150.569 11.064 150.918 11.1463C151.289 11.208 151.597 11.3314 151.844 11.5166C152.091 11.7017 152.276 11.9589 152.399 12.288C152.523 12.6171 152.585 13.0491 152.585 13.584V25.0011C152.585 26.832 152.06 28.2103 151.011 29.136C149.962 30.0411 148.419 30.4937 146.382 30.4937C145.313 30.4937 144.449 30.3291 143.79 30C143.317 29.7737 142.967 29.4651 142.741 29.0743C142.535 28.6834 142.433 28.2411 142.433 27.7474C142.433 27.336 142.484 26.976 142.587 26.6674C142.71 26.3589 142.854 26.112 143.019 25.9269C143.41 26.0091 143.739 26.0709 144.006 26.112C144.294 26.1326 144.603 26.1429 144.932 26.1429C145.734 26.1429 146.31 25.9474 146.66 25.5566C147.01 25.1451 147.185 24.5486 147.185 23.7669V11.3006ZM161.814 22.5634C160.909 22.2549 160.086 21.9463 159.346 21.6377C158.605 21.3086 157.967 20.9177 157.433 20.4651C156.898 20.0126 156.476 19.4777 156.167 18.8606C155.879 18.2229 155.735 17.4514 155.735 16.5463C155.735 14.7977 156.404 13.3989 157.741 12.3497C159.099 11.3006 160.991 10.776 163.419 10.776C164.303 10.776 165.126 10.8377 165.887 10.9611C166.649 11.0846 167.297 11.28 167.831 11.5474C168.387 11.7943 168.819 12.1234 169.127 12.5349C169.436 12.9257 169.59 13.3886 169.59 13.9234C169.59 14.4583 169.467 14.9211 169.22 15.312C168.973 15.6823 168.675 16.0011 168.325 16.2686C167.873 15.9806 167.266 15.7337 166.505 15.528C165.743 15.3017 164.91 15.1886 164.005 15.1886C163.079 15.1886 162.401 15.3223 161.969 15.5897C161.537 15.8366 161.321 16.1554 161.321 16.5463C161.321 16.8549 161.454 17.112 161.722 17.3177C161.989 17.5029 162.39 17.6777 162.925 17.8423L164.561 18.3669C166.494 18.984 167.975 19.776 169.004 20.7429C170.053 21.6891 170.578 22.9851 170.578 24.6309C170.578 26.3794 169.889 27.7989 168.51 28.8891C167.132 29.9589 165.106 30.4937 162.431 30.4937C161.485 30.4937 160.601 30.4114 159.778 30.2469C158.975 30.1029 158.266 29.8869 157.649 29.5989C157.052 29.2903 156.579 28.92 156.229 28.488C155.9 28.0354 155.735 27.5211 155.735 26.9451C155.735 26.3486 155.91 25.8446 156.26 25.4331C156.61 25.0011 156.99 24.672 157.402 24.4457C157.978 24.8983 158.677 25.2891 159.5 25.6183C160.343 25.9474 161.259 26.112 162.246 26.112C163.254 26.112 163.964 25.9577 164.375 25.6491C164.787 25.3406 164.993 24.9806 164.993 24.5691C164.993 24.1577 164.828 23.8491 164.499 23.6434C164.17 23.4171 163.707 23.2011 163.11 22.9954L161.814 22.5634Z" fill="#4E728C"/>
<path d="M202 44H50C36.76 44 26 54.76 26 68V220C26 233.24 36.76 244 50 244H202C215.24 244 226 233.24 226 220V68C226 54.76 215.24 44 202 44Z" fill="#303030"/>
<path d="M124.493 44.0585H202.495C214.645 44.0585 224.495 53.9083 224.495 66.0585V222.063C224.495 234.213 214.645 244.063 202.495 244.063H124.493V44.0585Z" fill="#474747"/>
<path d="M202.696 248H47.308C32.804 248 21 236.196 21 221.692V66.308C21 51.804 32.804 40 47.308 40H202.696C217.2 40 229 51.8 229 66.304V221.7C229 236.2 217.2 248 202.696 248ZM47.308 48C37.212 48 29 56.212 29 66.308V221.692C29 231.788 37.212 240 47.308 240H202.696C212.788 240 221 231.788 221 221.696V66.304C221 56.212 212.788 48 202.696 48H47.308Z" fill="#4E728C"/>
<path d="M62.8472 134.606L67.3519 142.837L75.5826 147.341L67.3519 151.846L62.8472 160.077L58.3425 151.846L50.1118 147.341L58.3425 142.837L62.8472 134.606ZM179.293 196.464L182.48 202.322L188.382 205.568L182.48 208.755L179.293 214.657L176.047 208.755L170.189 205.568L176.047 202.322L179.293 196.464ZM197.493 109.135L199.425 112.635L202.937 114.586L199.422 116.511L197.493 120.051L195.536 116.511L192.021 114.586L195.536 112.635L197.493 109.135Z" fill="#FFF8F8"/>
<path d="M65 54.2049C62.792 54.2049 61 55.9969 61 58.2049V66.2049C61 68.4129 62.792 70.2049 65 70.2049C67.208 70.2049 69 68.4129 69 66.2049V58.2049C69 55.9969 67.208 54.2049 65 54.2049ZM45 54.2049C42.792 54.2049 41 55.9969 41 58.2049V66.2049C41 68.4129 42.792 70.2049 45 70.2049C47.208 70.2049 49 68.4129 49 66.2049V58.2049C49 55.9969 47.208 54.2049 45 54.2049ZM125 54.2049C122.792 54.2049 121 55.9969 121 58.2049V66.2049C121 68.4129 122.792 70.2049 125 70.2049C127.208 70.2049 129 68.4129 129 66.2049V58.2049C129 55.9969 127.208 54.2049 125 54.2049ZM145 54.2049C142.792 54.2049 141 55.9969 141 58.2049V66.2049C141 68.4129 142.792 70.2049 145 70.2049C147.208 70.2049 149 68.4129 149 66.2049V58.2049C149 55.9969 147.208 54.2049 145 54.2049ZM165 54.2049C162.792 54.2049 161 55.9969 161 58.2049V66.2049C161 68.4129 162.792 70.2049 165 70.2049C167.208 70.2049 169 68.4129 169 66.2049V58.2049C169 55.9969 167.208 54.2049 165 54.2049ZM185 54.2049C182.792 54.2049 181 55.9969 181 58.2049V66.2049C181 68.4129 182.792 70.2049 185 70.2049C187.208 70.2049 189 68.4129 189 66.2049V58.2049C189 55.9969 187.208 54.2049 185 54.2049ZM205 54.2049C202.792 54.2049 201 55.9969 201 58.2049V66.2049C201 68.4129 202.792 70.2049 205 70.2049C207.208 70.2049 209 68.4129 209 66.2049V58.2049C209 55.9969 207.208 54.2049 205 54.2049ZM85 54.2049C82.792 54.2049 81 55.9969 81 58.2049V66.2049C81 68.4129 82.792 70.2049 85 70.2049C87.208 70.2049 89 68.4129 89 66.2049V58.2049C89 55.9969 87.208 54.2049 85 54.2049ZM105 54.2049C102.792 54.2049 101 55.9969 101 58.2049V66.2049C101 68.4129 102.792 70.2049 105 70.2049C107.208 70.2049 109 68.4129 109 66.2049V58.2049C109 55.9969 107.208 54.2049 105 54.2049Z" fill="#4E728C"/>
<path d="M125.5 214C160.018 214 188 186.018 188 151.5C188 116.982 160.018 89 125.5 89C90.9822 89 63 116.982 63 151.5C63 186.018 90.9822 214 125.5 214Z" fill="black"/>
<path d="M166.825 198.389L111.015 126.5H100.5V176.479H108.912V137.183L160.222 203.476C162.537 201.926 164.742 200.226 166.825 198.389Z" fill="url(#paint0_linear_301_22)"/>
<path d="M151.194 126.5H142.861V176.5H151.194V126.5Z" fill="url(#paint1_linear_301_22)"/>
<defs>
<linearGradient id="paint0_linear_301_22" x1="138.694" y1="169.903" x2="163.347" y2="200.458" gradientUnits="userSpaceOnUse">
<stop stop-color="white"/>
<stop offset="1" stop-color="white" stop-opacity="0"/>
</linearGradient>
<linearGradient id="paint1_linear_301_22" x1="147.028" y1="126.5" x2="146.888" y2="163.219" gradientUnits="userSpaceOnUse">
<stop stop-color="white"/>
<stop offset="1" stop-color="white" stop-opacity="0"/>
</linearGradient>
</defs>
</svg>
