<svg width="250" height="250" viewBox="0 0 250 250" fill="none" xmlns="http://www.w3.org/2000/svg">
<path d="M84.8658 20.496C84.8658 19.8583 84.6807 19.3954 84.3104 19.1074C83.9607 18.7989 83.4773 18.6446 82.8601 18.6446C82.4487 18.6446 82.0373 18.696 81.6258 18.7989C81.235 18.9017 80.8955 19.056 80.6075 19.2617V29.9691C80.4018 30.0309 80.0727 30.0926 79.6201 30.1543C79.1881 30.216 78.7355 30.2469 78.2624 30.2469C77.8098 30.2469 77.3984 30.216 77.0281 30.1543C76.6784 30.0926 76.3801 29.9691 76.1333 29.784C75.8864 29.5989 75.691 29.352 75.547 29.0434C75.4235 28.7143 75.3618 28.2926 75.3618 27.7783V18.5211C75.3618 17.9657 75.475 17.5131 75.7013 17.1634C75.9481 16.8137 76.2773 16.4949 76.6887 16.2069C77.3881 15.7131 78.2624 15.312 79.3115 15.0034C80.3813 14.6949 81.5641 14.5406 82.8601 14.5406C85.1847 14.5406 86.9744 15.0549 88.2293 16.0834C89.4841 17.0914 90.1115 18.5006 90.1115 20.3109V29.9691C89.9058 30.0309 89.5767 30.0926 89.1241 30.1543C88.6921 30.216 88.2395 30.2469 87.7664 30.2469C87.3138 30.2469 86.9024 30.216 86.5321 30.1543C86.1824 30.0926 85.8841 29.9691 85.6373 29.784C85.3904 29.5989 85.195 29.352 85.051 29.0434C84.9275 28.7143 84.8658 28.2926 84.8658 27.7783V20.496ZM108.873 22.5017C108.873 23.7771 108.677 24.9189 108.287 25.9269C107.896 26.9143 107.34 27.7474 106.62 28.4263C105.921 29.1051 105.077 29.6194 104.09 29.9691C103.103 30.3189 102.002 30.4937 100.788 30.4937C99.5746 30.4937 98.4741 30.3086 97.4866 29.9383C96.4992 29.568 95.6455 29.0434 94.9255 28.3646C94.2261 27.6651 93.6809 26.8217 93.2901 25.8343C92.8992 24.8469 92.7038 23.736 92.7038 22.5017C92.7038 21.288 92.8992 20.1874 93.2901 19.2C93.6809 18.2126 94.2261 17.3794 94.9255 16.7006C95.6455 16.0011 96.4992 15.4663 97.4866 15.096C98.4741 14.7257 99.5746 14.5406 100.788 14.5406C102.002 14.5406 103.103 14.736 104.09 15.1269C105.077 15.4971 105.921 16.032 106.62 16.7314C107.34 17.4103 107.896 18.2434 108.287 19.2309C108.677 20.2183 108.873 21.3086 108.873 22.5017ZM98.0729 22.5017C98.0729 23.7566 98.3095 24.7234 98.7826 25.4023C99.2764 26.0606 99.9552 26.3897 100.819 26.3897C101.683 26.3897 102.341 26.0503 102.794 25.3714C103.267 24.6926 103.504 23.736 103.504 22.5017C103.504 21.2674 103.267 20.3211 102.794 19.6629C102.321 18.984 101.652 18.6446 100.788 18.6446C99.9244 18.6446 99.2558 18.984 98.7826 19.6629C98.3095 20.3211 98.0729 21.2674 98.0729 22.5017ZM110.784 22.5017C110.784 21.144 110.99 19.9714 111.401 18.984C111.813 17.976 112.378 17.1429 113.098 16.4846C113.839 15.8263 114.693 15.3429 115.66 15.0343C116.647 14.7051 117.706 14.5406 118.838 14.5406C119.249 14.5406 119.65 14.5817 120.041 14.664C120.432 14.7257 120.751 14.808 120.998 14.9109V9.912C121.204 9.85028 121.533 9.78857 121.985 9.72686C122.438 9.64457 122.901 9.60343 123.374 9.60343C123.826 9.60343 124.228 9.63428 124.577 9.696C124.948 9.75771 125.256 9.88114 125.503 10.0663C125.75 10.2514 125.935 10.5086 126.058 10.8377C126.182 11.1463 126.244 11.5577 126.244 12.072V26.6983C126.244 27.6651 125.791 28.4366 124.886 29.0126C124.289 29.4034 123.518 29.7429 122.572 30.0309C121.625 30.3394 120.535 30.4937 119.301 30.4937C117.964 30.4937 116.76 30.3086 115.69 29.9383C114.641 29.568 113.746 29.0331 113.006 28.3337C112.286 27.6343 111.73 26.8011 111.34 25.8343C110.969 24.8469 110.784 23.736 110.784 22.5017ZM119.548 18.6446C118.437 18.6446 117.583 18.9634 116.986 19.6011C116.39 20.2389 116.092 21.2057 116.092 22.5017C116.092 23.7771 116.369 24.744 116.925 25.4023C117.48 26.04 118.282 26.3589 119.332 26.3589C119.702 26.3589 120.031 26.3074 120.319 26.2046C120.628 26.0811 120.864 25.9474 121.029 25.8034V19.0149C120.617 18.768 120.124 18.6446 119.548 18.6446ZM137.443 30.4937C136.229 30.4937 135.098 30.3291 134.049 30C133.02 29.6503 132.115 29.136 131.333 28.4571C130.572 27.7783 129.965 26.9246 129.512 25.896C129.08 24.8674 128.864 23.664 128.864 22.2857C128.864 20.928 129.08 19.7657 129.512 18.7989C129.965 17.8114 130.551 17.0091 131.271 16.392C131.991 15.7543 132.814 15.2914 133.74 15.0034C134.666 14.6949 135.612 14.5406 136.579 14.5406C137.669 14.5406 138.657 14.7051 139.541 15.0343C140.446 15.3634 141.218 15.816 141.855 16.392C142.514 16.968 143.018 17.6571 143.367 18.4594C143.738 19.2617 143.923 20.136 143.923 21.0823C143.923 21.7817 143.727 22.3166 143.337 22.6869C142.946 23.0571 142.401 23.2937 141.701 23.3966L134.079 24.5383C134.306 25.2171 134.769 25.7314 135.468 26.0811C136.167 26.4103 136.97 26.5749 137.875 26.5749C138.718 26.5749 139.51 26.472 140.251 26.2663C141.012 26.04 141.629 25.7829 142.102 25.4949C142.431 25.7006 142.709 25.9886 142.935 26.3589C143.162 26.7291 143.275 27.12 143.275 27.5314C143.275 28.4571 142.843 29.1463 141.979 29.5989C141.321 29.9486 140.58 30.1851 139.757 30.3086C138.934 30.432 138.163 30.4937 137.443 30.4937ZM136.579 18.3669C136.085 18.3669 135.653 18.4491 135.283 18.6137C134.933 18.7783 134.645 18.9943 134.419 19.2617C134.193 19.5086 134.018 19.7966 133.894 20.1257C133.791 20.4343 133.73 20.7531 133.709 21.0823L138.986 20.2183C138.924 19.8069 138.698 19.3954 138.307 18.984C137.916 18.5726 137.34 18.3669 136.579 18.3669ZM145.522 27.5006C145.522 26.6366 145.789 25.9166 146.324 25.3406C146.859 24.7646 147.589 24.4766 148.515 24.4766C149.441 24.4766 150.171 24.7646 150.706 25.3406C151.241 25.9166 151.508 26.6366 151.508 27.5006C151.508 28.3646 151.241 29.0846 150.706 29.6606C150.171 30.2366 149.441 30.5246 148.515 30.5246C147.589 30.5246 146.859 30.2366 146.324 29.6606C145.789 29.0846 145.522 28.3646 145.522 27.5006ZM153.831 10.8377C153.831 10.056 154.088 9.39771 154.603 8.86285C155.138 8.328 155.837 8.06057 156.701 8.06057C157.565 8.06057 158.254 8.328 158.768 8.86285C159.303 9.39771 159.571 10.056 159.571 10.8377C159.571 11.6194 159.303 12.2777 158.768 12.8126C158.254 13.3474 157.565 13.6149 156.701 13.6149C155.837 13.6149 155.138 13.3474 154.603 12.8126C154.088 12.2777 153.831 11.6194 153.831 10.8377ZM152.782 32.0983C153.235 31.8103 153.564 31.4091 153.77 30.8949C153.975 30.4011 154.078 29.8457 154.078 29.2286V15.2194C154.304 15.1783 154.634 15.1269 155.066 15.0651C155.518 14.9829 155.971 14.9417 156.423 14.9417C156.876 14.9417 157.277 14.9726 157.627 15.0343C157.997 15.096 158.306 15.2194 158.552 15.4046C158.799 15.5897 158.984 15.8469 159.108 16.176C159.252 16.4846 159.324 16.896 159.324 17.4103V29.7223C159.324 30.5863 159.221 31.368 159.015 32.0674C158.81 32.7669 158.511 33.3634 158.12 33.8571C157.75 34.3714 157.287 34.7623 156.732 35.0297C156.197 35.3177 155.59 35.4617 154.911 35.4617C154.006 35.4617 153.296 35.184 152.782 34.6286C152.268 34.0937 152 33.4149 151.98 32.592L152.782 32.0983ZM175.311 25.5257C175.311 27.0891 174.725 28.3131 173.552 29.1977C172.38 30.0823 170.652 30.5246 168.368 30.5246C167.504 30.5246 166.702 30.4629 165.962 30.3394C165.221 30.216 164.583 30.0309 164.048 29.784C163.534 29.5166 163.123 29.1874 162.814 28.7966C162.526 28.4057 162.382 27.9429 162.382 27.408C162.382 26.9143 162.485 26.5029 162.691 26.1737C162.896 25.824 163.143 25.536 163.431 25.3097C164.028 25.6389 164.707 25.9371 165.468 26.2046C166.25 26.4514 167.144 26.5749 168.152 26.5749C168.79 26.5749 169.274 26.4823 169.603 26.2971C169.952 26.112 170.127 25.8651 170.127 25.5566C170.127 25.2686 170.004 25.0423 169.757 24.8777C169.51 24.7131 169.099 24.5794 168.523 24.4766L167.597 24.2914C165.807 23.9417 164.47 23.3966 163.586 22.656C162.722 21.8949 162.29 20.8149 162.29 19.416C162.29 18.6549 162.454 17.9657 162.783 17.3486C163.112 16.7314 163.575 16.2171 164.172 15.8057C164.768 15.3943 165.478 15.0754 166.301 14.8491C167.144 14.6229 168.07 14.5097 169.078 14.5097C169.839 14.5097 170.549 14.5714 171.207 14.6949C171.886 14.7977 172.472 14.9623 172.966 15.1886C173.46 15.4149 173.851 15.7131 174.139 16.0834C174.427 16.4331 174.571 16.8549 174.571 17.3486C174.571 17.8217 174.478 18.2331 174.293 18.5829C174.128 18.912 173.912 19.1897 173.645 19.416C173.48 19.3131 173.234 19.2103 172.904 19.1074C172.575 18.984 172.215 18.8811 171.824 18.7989C171.434 18.696 171.032 18.6137 170.621 18.552C170.23 18.4903 169.87 18.4594 169.541 18.4594C168.862 18.4594 168.338 18.5417 167.967 18.7063C167.597 18.8503 167.412 19.0869 167.412 19.416C167.412 19.6423 167.515 19.8274 167.72 19.9714C167.926 20.1154 168.317 20.2491 168.893 20.3726L169.85 20.5886C171.824 21.0411 173.223 21.6686 174.046 22.4709C174.89 23.2526 175.311 24.2709 175.311 25.5257Z" fill="#4E728C"/>
<path d="M62.8472 135.315L67.3519 143.352L75.5826 147.751L67.3519 152.15L62.8472 160.188L58.3425 152.15L50.1118 147.751L58.3425 143.352L62.8472 135.315ZM179.293 195.72L182.48 201.441L188.382 204.611L182.48 207.723L179.293 213.487L176.047 207.723L170.189 204.611L176.047 201.441L179.293 195.72ZM197.493 110.442L199.425 113.86L202.937 115.765L199.422 117.644L197.493 121.102L195.536 117.644L192.021 115.765L195.536 113.86L197.493 110.442Z" fill="#FFF8F8"/>
<path d="M168.082 43.5C174.9 43.5 181.165 47.2503 184.387 53.2596L228.343 135.26C231.27 140.719 231.27 147.281 228.343 152.74L184.387 234.74C181.165 240.75 174.9 244.5 168.082 244.5L82.9183 244.5C76.1001 244.5 69.8346 240.75 66.6133 234.74L22.6566 152.74C19.7299 147.281 19.73 140.719 22.6566 135.26L66.6133 53.2596C69.8346 47.2503 76.1001 43.5 82.9183 43.5L168.082 43.5Z" fill="#8BEB7B" stroke="#4E728C" stroke-width="7"/>
<path d="M168.082 40C176.19 40 183.641 44.4598 187.471 51.606L231.428 133.606C234.908 140.098 234.908 147.902 231.428 154.394L187.471 236.394C183.641 243.54 176.19 248 168.082 248L125 248L125 40L168.082 40Z" fill="#9FEB7B"/>
<path d="M168.082 43.5C174.9 43.5 181.165 47.2503 184.387 53.2596L228.343 135.26C231.27 140.719 231.27 147.281 228.343 152.74L184.387 234.74C181.165 240.75 174.9 244.5 168.082 244.5L82.9183 244.5C76.1001 244.5 69.8346 240.75 66.6133 234.74L22.6566 152.74C19.7299 147.281 19.73 140.719 22.6566 135.26L66.6133 53.2596C69.8346 47.2503 76.1001 43.5 82.9183 43.5L168.082 43.5Z" stroke="#4E728C" stroke-width="7"/>
<path d="M125 56.801C122.792 56.801 121 58.551 121 60.7071V68.5193C121 70.6755 122.792 72.4254 125 72.4254C127.208 72.4254 129 70.6755 129 68.5193V60.7071C129 58.551 127.208 56.801 125 56.801ZM145 56.801C142.792 56.801 141 58.551 141 60.7071V68.5193C141 70.6755 142.792 72.4254 145 72.4254C147.208 72.4254 149 70.6755 149 68.5193V60.7071C149 58.551 147.208 56.801 145 56.801ZM165 56.801C162.792 56.801 161 58.551 161 60.7071V68.5193C161 70.6755 162.792 72.4254 165 72.4254C167.208 72.4254 169 70.6755 169 68.5193V60.7071C169 58.551 167.208 56.801 165 56.801ZM85 56.801C82.792 56.801 81 58.551 81 60.7071V68.5193C81 70.6755 82.792 72.4254 85 72.4254C87.208 72.4254 89 70.6755 89 68.5193V60.7071C89 58.551 87.208 56.801 85 56.801ZM105 56.801C102.792 56.801 101 58.551 101 60.7071V68.5193C101 70.6755 102.792 72.4254 105 72.4254C107.208 72.4254 109 70.6755 109 68.5193V60.7071C109 58.551 107.208 56.801 105 56.801Z" fill="#4E728C"/>
<path d="M55.8472 134.606L60.3519 142.837L68.5826 147.341L60.3519 151.846L55.8472 160.077L51.3425 151.846L43.1118 147.341L51.3425 142.837L55.8472 134.606ZM172.293 196.464L175.48 202.322L181.382 205.568L175.48 208.755L172.293 214.657L169.047 208.755L163.189 205.568L169.047 202.322L172.293 196.464ZM190.493 109.135L192.425 112.635L195.937 114.586L192.422 116.511L190.493 120.051L188.536 116.511L185.021 114.586L188.536 112.635L190.493 109.135Z" fill="#FFF8F8"/>
<path d="M104.822 130.038L90.3261 138.058C89.7825 138.357 89.4487 138.912 89.4487 139.512V155.561C89.4487 156.161 89.7825 156.713 90.3261 157.015L104.825 165.041C105.365 165.339 106.036 165.339 106.576 165.041L121.072 157.015C121.61 156.713 121.943 156.161 121.943 155.561V139.512C121.943 138.912 121.61 138.36 121.066 138.058L106.573 130.038C106.302 129.887 105.997 129.814 105.696 129.814C105.392 129.814 105.09 129.887 104.819 130.038H104.822ZM179.403 144.486L176.986 145.822C176.895 145.872 176.842 145.963 176.842 146.064V148.74C176.842 148.841 176.898 148.932 176.986 148.983L179.403 150.321C179.494 150.371 179.604 150.371 179.695 150.321L182.112 148.983C182.2 148.932 182.256 148.841 182.256 148.74V146.064C182.256 145.963 182.2 145.872 182.109 145.822L179.692 144.486C179.648 144.46 179.598 144.448 179.548 144.448C179.497 144.448 179.447 144.46 179.403 144.486Z" fill="#388E3C"/>
<path d="M159.611 113.029L152.553 109.091C152.332 108.967 152.06 108.97 151.841 109.1C151.623 109.23 151.487 109.463 151.487 109.717L151.484 133.503L144.976 129.902C144.704 129.752 144.4 129.678 144.099 129.678C143.797 129.678 143.493 129.752 143.221 129.902H143.224L128.729 137.923C128.185 138.221 127.851 138.776 127.851 139.373V155.422C127.851 156.022 128.185 156.574 128.729 156.876L143.227 164.902C143.768 165.2 144.438 165.2 144.979 164.902L159.475 156.876C160.012 156.577 160.346 156.022 160.346 155.422V114.281C160.346 113.761 160.063 113.283 159.611 113.029ZM151.088 151.709L144.501 155.357C144.255 155.493 143.951 155.493 143.706 155.357L137.115 151.709C136.864 151.573 136.714 151.319 136.714 151.047V143.751C136.714 143.479 136.864 143.228 137.112 143.089L143.703 139.444H143.7C143.824 139.376 143.96 139.343 144.099 139.343C144.238 139.343 144.373 139.379 144.498 139.444L151.085 143.089C151.333 143.228 151.484 143.482 151.484 143.754V151.05C151.484 151.319 151.333 151.573 151.088 151.709Z" fill="#4E728C"/>
<path d="M104.822 130.038L89.4487 155.561C89.4487 156.161 89.7825 156.713 90.3261 157.015L104.825 165.041C105.365 165.339 106.036 165.339 106.576 165.041L121.943 139.512C121.943 138.912 121.61 138.36 121.066 138.058L106.573 130.038C106.302 129.887 105.997 129.814 105.696 129.814C105.392 129.814 105.09 129.887 104.819 130.038" fill="#2E7D32"/>
<path d="M104.822 130.038L90.3261 138.058C89.7825 138.357 89.4487 138.912 89.4487 139.512L104.822 165.041C105.362 165.339 106.033 165.339 106.573 165.041L121.069 157.015C121.61 156.713 121.943 156.161 121.943 155.561L106.573 130.038C106.302 129.887 105.997 129.814 105.696 129.814C105.392 129.814 105.09 129.887 104.819 130.038" fill="#4CAF50"/>
<path d="M194.918 137.923L180.425 129.902C180.153 129.752 179.849 129.678 179.548 129.678C179.246 129.678 178.942 129.752 178.67 129.902H178.673L164.178 137.923C163.637 138.221 163.3 138.788 163.3 139.408V155.393C163.3 156.01 163.637 156.58 164.178 156.879L178.676 164.905C179.22 165.206 179.884 165.206 180.428 164.905L187.113 161.203C187.724 160.864 187.721 159.986 187.107 159.65L172.561 151.712C172.316 151.573 172.162 151.316 172.162 151.039V143.754C172.162 143.482 172.31 143.231 172.546 143.101L179.149 139.45H179.146C179.27 139.382 179.406 139.349 179.545 139.349C179.683 139.349 179.819 139.385 179.943 139.45L186.546 143.104C186.782 143.234 186.93 143.485 186.93 143.757V149.7C186.93 149.954 187.066 150.191 187.287 150.318C187.509 150.442 187.781 150.442 188.002 150.315L195.086 146.2C195.523 145.946 195.795 145.476 195.795 144.968V139.414C195.795 138.791 195.458 138.221 194.918 137.923ZM85.6173 137.923L71.1247 129.902C70.8529 129.752 70.5486 129.678 70.2473 129.678C69.946 129.678 69.6418 129.752 69.37 129.902H69.3729L54.8774 137.923C54.3368 138.221 54 138.788 54 139.408V161.46C54 161.715 54.1359 161.951 54.3574 162.078C54.579 162.202 54.8508 162.202 55.0723 162.075L62.1562 157.96C62.5934 157.706 62.8622 157.236 62.8622 156.728V143.751C62.8622 143.479 63.0099 143.228 63.2462 143.098L69.8485 139.447C69.9726 139.379 70.1085 139.346 70.2473 139.346C70.3862 139.346 70.5221 139.382 70.6461 139.447L77.2485 143.101C77.4848 143.231 77.6325 143.482 77.6325 143.754V156.731C77.6325 157.239 77.9013 157.709 78.3415 157.963L85.4253 162.078C85.6469 162.205 85.9186 162.205 86.1402 162.081C86.3588 161.951 86.4947 161.715 86.4947 161.46V139.411C86.4947 138.791 86.1579 138.221 85.6173 137.923Z" fill="#4E728C"/>
</svg>
