<svg width="250" height="250" viewBox="0 0 250 250" fill="none" xmlns="http://www.w3.org/2000/svg">
<path d="M95.2074 29.9691C95.0017 30.0309 94.6726 30.0926 94.22 30.1543C93.788 30.216 93.3354 30.2469 92.8623 30.2469C92.4097 30.2469 91.9983 30.216 91.628 30.1543C91.2783 30.0926 90.98 29.9691 90.7331 29.784C90.4863 29.5989 90.2909 29.352 90.1469 29.0434C90.0234 28.7143 89.9617 28.2926 89.9617 27.7783V18.5211C89.9617 18.048 90.044 17.6469 90.2086 17.3177C90.3937 16.968 90.6509 16.6594 90.98 16.392C91.3091 16.1246 91.7103 15.888 92.1834 15.6823C92.6771 15.456 93.2017 15.2606 93.7571 15.096C94.3126 14.9314 94.8886 14.808 95.4851 14.7257C96.0817 14.6229 96.6783 14.5714 97.2749 14.5714C98.2623 14.5714 99.044 14.7669 99.62 15.1577C100.196 15.528 100.484 16.1451 100.484 17.0091C100.484 17.2971 100.443 17.5851 100.361 17.8731C100.278 18.1406 100.175 18.3874 100.052 18.6137C99.62 18.6137 99.1777 18.6343 98.7251 18.6754C98.2726 18.7166 97.8303 18.7783 97.3983 18.8606C96.9663 18.9429 96.5549 19.0354 96.164 19.1383C95.7937 19.2206 95.4749 19.3234 95.2074 19.4469V29.9691ZM110.006 30.4937C108.792 30.4937 107.661 30.3291 106.612 30C105.583 29.6503 104.678 29.136 103.896 28.4571C103.135 27.7783 102.528 26.9246 102.076 25.896C101.644 24.8674 101.428 23.664 101.428 22.2857C101.428 20.928 101.644 19.7657 102.076 18.7989C102.528 17.8114 103.114 17.0091 103.834 16.392C104.554 15.7543 105.377 15.2914 106.303 15.0034C107.229 14.6949 108.175 14.5406 109.142 14.5406C110.232 14.5406 111.22 14.7051 112.104 15.0343C113.009 15.3634 113.781 15.816 114.418 16.392C115.077 16.968 115.581 17.6571 115.93 18.4594C116.301 19.2617 116.486 20.136 116.486 21.0823C116.486 21.7817 116.29 22.3166 115.9 22.6869C115.509 23.0571 114.964 23.2937 114.264 23.3966L106.642 24.5383C106.869 25.2171 107.332 25.7314 108.031 26.0811C108.73 26.4103 109.533 26.5749 110.438 26.5749C111.281 26.5749 112.073 26.472 112.814 26.2663C113.575 26.04 114.192 25.7829 114.665 25.4949C114.994 25.7006 115.272 25.9886 115.498 26.3589C115.725 26.7291 115.838 27.12 115.838 27.5314C115.838 28.4571 115.406 29.1463 114.542 29.5989C113.884 29.9486 113.143 30.1851 112.32 30.3086C111.497 30.432 110.726 30.4937 110.006 30.4937ZM109.142 18.3669C108.648 18.3669 108.216 18.4491 107.846 18.6137C107.496 18.7783 107.208 18.9943 106.982 19.2617C106.756 19.5086 106.581 19.7966 106.457 20.1257C106.354 20.4343 106.293 20.7531 106.272 21.0823L111.549 20.2183C111.487 19.8069 111.261 19.3954 110.87 18.984C110.479 18.5726 109.903 18.3669 109.142 18.3669ZM125.429 26.6674C125.779 26.6674 126.159 26.6366 126.571 26.5749C127.003 26.4926 127.322 26.3897 127.527 26.2663V23.7977L125.306 23.9829C124.73 24.024 124.257 24.1474 123.886 24.3531C123.516 24.5589 123.331 24.8674 123.331 25.2789C123.331 25.6903 123.485 26.0297 123.794 26.2971C124.123 26.544 124.668 26.6674 125.429 26.6674ZM125.182 14.5406C126.293 14.5406 127.301 14.6537 128.206 14.88C129.132 15.1063 129.914 15.456 130.551 15.9291C131.21 16.3817 131.714 16.968 132.063 17.688C132.413 18.3874 132.588 19.2206 132.588 20.1874V27.0994C132.588 27.6343 132.434 28.0766 132.125 28.4263C131.837 28.7554 131.487 29.0434 131.076 29.2903C129.739 30.0926 127.857 30.4937 125.429 30.4937C124.339 30.4937 123.351 30.3909 122.467 30.1851C121.603 29.9794 120.852 29.6709 120.214 29.2594C119.597 28.848 119.114 28.3234 118.764 27.6857C118.435 27.048 118.27 26.3074 118.27 25.464C118.27 24.0446 118.692 22.9543 119.535 22.1931C120.379 21.432 121.685 20.9589 123.454 20.7737L127.497 20.3417V20.1257C127.497 19.5291 127.229 19.1074 126.694 18.8606C126.18 18.5931 125.429 18.4594 124.442 18.4594C123.66 18.4594 122.899 18.5417 122.158 18.7063C121.418 18.8709 120.749 19.0766 120.153 19.3234C119.885 19.1383 119.659 18.8606 119.474 18.4903C119.289 18.0994 119.196 17.6983 119.196 17.2869C119.196 16.752 119.319 16.3303 119.566 16.0217C119.834 15.6926 120.235 15.4149 120.77 15.1886C121.366 14.9623 122.066 14.7977 122.868 14.6949C123.691 14.592 124.462 14.5406 125.182 14.5406ZM144.25 18.6754C143.736 18.6754 143.242 18.7577 142.769 18.9223C142.317 19.0869 141.915 19.3337 141.566 19.6629C141.237 19.9714 140.969 20.3623 140.763 20.8354C140.558 21.3086 140.455 21.864 140.455 22.5017C140.455 23.7771 140.815 24.7337 141.535 25.3714C142.275 26.0091 143.17 26.328 144.219 26.328C144.837 26.328 145.371 26.256 145.824 26.112C146.277 25.968 146.678 25.8137 147.027 25.6491C147.439 25.9371 147.747 26.256 147.953 26.6057C148.159 26.9349 148.262 27.336 148.262 27.8091C148.262 28.6526 147.861 29.3109 147.058 29.784C146.256 30.2366 145.145 30.4629 143.726 30.4629C142.43 30.4629 141.257 30.2777 140.208 29.9074C139.159 29.5166 138.254 28.9817 137.493 28.3029C136.752 27.6034 136.176 26.7703 135.765 25.8034C135.353 24.8366 135.147 23.7669 135.147 22.5943C135.147 21.2366 135.363 20.0537 135.795 19.0457C136.248 18.0171 136.855 17.1737 137.616 16.5154C138.377 15.8571 139.251 15.3634 140.239 15.0343C141.247 14.7051 142.306 14.5406 143.417 14.5406C144.898 14.5406 146.04 14.808 146.842 15.3429C147.645 15.8777 148.046 16.5669 148.046 17.4103C148.046 17.8011 147.953 18.1714 147.768 18.5211C147.583 18.8503 147.367 19.1383 147.12 19.3851C146.77 19.2206 146.349 19.0663 145.855 18.9223C145.361 18.7577 144.826 18.6754 144.25 18.6754ZM156.138 24.8469C156.138 25.3817 156.303 25.7623 156.632 25.9886C156.982 26.2149 157.465 26.328 158.082 26.328C158.391 26.328 158.71 26.3074 159.039 26.2663C159.368 26.2046 159.656 26.1326 159.903 26.0503C160.088 26.2766 160.242 26.5337 160.366 26.8217C160.51 27.0891 160.582 27.4183 160.582 27.8091C160.582 28.5909 160.283 29.2286 159.687 29.7223C159.111 30.216 158.082 30.4629 156.601 30.4629C154.791 30.4629 153.392 30.0514 152.405 29.2286C151.438 28.4057 150.954 27.0686 150.954 25.2171V12.0103C151.181 11.9486 151.499 11.8869 151.911 11.8251C152.343 11.7429 152.795 11.7017 153.269 11.7017C154.174 11.7017 154.873 11.8663 155.367 12.1954C155.881 12.504 156.138 13.1726 156.138 14.2011V16.176H160.181C160.304 16.4023 160.417 16.6903 160.52 17.04C160.643 17.3691 160.705 17.7394 160.705 18.1509C160.705 18.8709 160.541 19.3954 160.211 19.7246C159.903 20.0331 159.481 20.1874 158.946 20.1874H156.138V24.8469Z" fill="#4E728C"/>
<path d="M25 66C25 53.8497 34.8497 44 47 44H202C214.15 44 224 53.8497 224 66V222C224 234.15 214.15 244 202 244H47C34.8497 244 25 234.15 25 222V66Z" fill="#7BE4EB"/>
<path d="M124.493 44.0585H202.495C214.645 44.0585 224.495 53.9083 224.495 66.0585V222.063C224.495 234.213 214.645 244.063 202.495 244.063H124.493V44.0585Z" fill="#ACFAFF"/>
<path d="M202.696 248H47.308C32.804 248 21 236.196 21 221.692V66.308C21 51.804 32.804 40 47.308 40H202.696C217.2 40 229 51.8 229 66.304V221.7C229 236.2 217.2 248 202.696 248ZM47.308 48C37.212 48 29 56.212 29 66.308V221.692C29 231.788 37.212 240 47.308 240H202.696C212.788 240 221 231.788 221 221.696V66.304C221 56.212 212.788 48 202.696 48H47.308Z" fill="#4E728C"/>
<path d="M62.8473 134.606L67.352 142.837L75.5827 147.341L67.352 151.846L62.8473 160.077L58.3426 151.846L50.1119 147.341L58.3426 142.837L62.8473 134.606ZM179.293 196.464L182.48 202.322L188.382 205.568L182.48 208.755L179.293 214.657L176.047 208.755L170.189 205.568L176.047 202.322L179.293 196.464ZM197.493 109.135L199.425 112.635L202.937 114.586L199.422 116.511L197.493 120.051L195.536 116.511L192.021 114.586L195.536 112.635L197.493 109.135Z" fill="#FFF8F8"/>
<path d="M65 54.2049C62.792 54.2049 61 55.9969 61 58.2049V66.2049C61 68.4129 62.792 70.2049 65 70.2049C67.208 70.2049 69 68.4129 69 66.2049V58.2049C69 55.9969 67.208 54.2049 65 54.2049ZM45 54.2049C42.792 54.2049 41 55.9969 41 58.2049V66.2049C41 68.4129 42.792 70.2049 45 70.2049C47.208 70.2049 49 68.4129 49 66.2049V58.2049C49 55.9969 47.208 54.2049 45 54.2049ZM125 54.2049C122.792 54.2049 121 55.9969 121 58.2049V66.2049C121 68.4129 122.792 70.2049 125 70.2049C127.208 70.2049 129 68.4129 129 66.2049V58.2049C129 55.9969 127.208 54.2049 125 54.2049ZM145 54.2049C142.792 54.2049 141 55.9969 141 58.2049V66.2049C141 68.4129 142.792 70.2049 145 70.2049C147.208 70.2049 149 68.4129 149 66.2049V58.2049C149 55.9969 147.208 54.2049 145 54.2049ZM165 54.2049C162.792 54.2049 161 55.9969 161 58.2049V66.2049C161 68.4129 162.792 70.2049 165 70.2049C167.208 70.2049 169 68.4129 169 66.2049V58.2049C169 55.9969 167.208 54.2049 165 54.2049ZM185 54.2049C182.792 54.2049 181 55.9969 181 58.2049V66.2049C181 68.4129 182.792 70.2049 185 70.2049C187.208 70.2049 189 68.4129 189 66.2049V58.2049C189 55.9969 187.208 54.2049 185 54.2049ZM205 54.2049C202.792 54.2049 201 55.9969 201 58.2049V66.2049C201 68.4129 202.792 70.2049 205 70.2049C207.208 70.2049 209 68.4129 209 66.2049V58.2049C209 55.9969 207.208 54.2049 205 54.2049ZM85 54.2049C82.792 54.2049 81 55.9969 81 58.2049V66.2049C81 68.4129 82.792 70.2049 85 70.2049C87.208 70.2049 89 68.4129 89 66.2049V58.2049C89 55.9969 87.208 54.2049 85 54.2049ZM105 54.2049C102.792 54.2049 101 55.9969 101 58.2049V66.2049C101 68.4129 102.792 70.2049 105 70.2049C107.208 70.2049 109 68.4129 109 66.2049V58.2049C109 55.9969 107.208 54.2049 105 54.2049Z" fill="#4E728C"/>
<path d="M124.5 158.486C131.404 158.486 137 152.89 137 145.986C137 139.083 131.404 133.486 124.5 133.486C117.596 133.486 112 139.083 112 145.986C112 152.89 117.596 158.486 124.5 158.486Z" fill="#FAEFDE"/>
<path d="M124.5 160.569C116.46 160.569 109.917 154.026 109.917 145.986C109.917 137.946 116.46 131.403 124.5 131.403C132.54 131.403 139.083 137.946 139.083 145.986C139.083 154.026 132.54 160.569 124.5 160.569ZM124.5 135.569C118.756 135.569 114.083 140.242 114.083 145.986C114.083 151.73 118.756 156.403 124.5 156.403C130.244 156.403 134.917 151.73 134.917 145.986C134.917 140.242 130.244 135.569 124.5 135.569Z" fill="#4E728C"/>
<path d="M124.5 173.069C89.4542 173.069 62 161.174 62 145.986C62 130.799 89.4542 118.903 124.5 118.903C159.546 118.903 187 130.799 187 145.986C187 161.174 159.546 173.069 124.5 173.069ZM124.5 123.069C92.8792 123.069 66.1667 133.563 66.1667 145.986C66.1667 158.409 92.8792 168.903 124.5 168.903C156.121 168.903 182.833 158.409 182.833 145.986C182.833 133.563 156.121 123.069 124.5 123.069Z" fill="#4E728C"/>
<path d="M100.158 201.876C97.6125 201.876 95.2938 201.292 93.25 200.111C86.6896 196.324 84.0313 187.005 85.7646 173.869C87.4167 161.361 92.8417 146.651 101.044 132.442C109.248 118.236 119.277 106.18 129.283 98.4944C139.794 90.4277 149.194 88.0736 155.75 91.8611C162.31 95.6486 164.969 104.967 163.235 118.103C161.583 130.609 156.156 145.321 147.956 159.528C139.752 173.734 129.723 185.79 119.717 193.476C112.483 199.028 105.777 201.876 100.158 201.876ZM148.842 94.2757C144.188 94.2757 138.26 96.8569 131.821 101.803C122.238 109.161 112.592 120.782 104.654 134.528C96.7188 148.274 91.4792 162.436 89.8959 174.415C88.4188 185.605 90.4021 193.653 95.3334 196.503C100.265 199.353 108.223 197.044 117.179 190.169C126.763 182.811 136.408 171.19 144.346 157.444C152.281 143.699 157.521 129.536 159.104 117.557C160.581 106.367 158.598 98.3194 153.667 95.4694C152.283 94.6694 150.658 94.2757 148.842 94.2757Z" fill="#4E728C"/>
<path d="M148.842 201.876C143.225 201.876 136.517 199.028 129.283 193.476C119.277 185.792 109.248 173.734 101.044 159.528C92.8417 145.321 87.4167 130.609 85.7646 118.101C84.0313 104.967 86.6896 95.6486 93.25 91.8611C99.8125 88.0777 109.21 90.4319 119.717 98.4986C129.723 106.182 139.752 118.24 147.956 132.446C156.158 146.653 161.583 161.365 163.235 173.874C164.969 187.005 162.31 196.324 155.75 200.111C153.706 201.292 151.383 201.876 148.842 201.876ZM100.158 94.2757C98.3396 94.2757 96.7188 94.6694 95.3334 95.4694C90.4021 98.3173 88.4188 106.365 89.8959 117.557C91.4792 129.536 96.7188 143.701 104.654 157.444C112.592 171.19 122.238 182.811 131.821 190.169C140.775 197.044 148.735 199.351 153.667 196.503C158.598 193.655 160.581 185.607 159.104 174.415C157.521 162.436 152.281 148.271 144.346 134.528C136.408 120.782 126.763 109.161 117.179 101.803C110.742 96.859 104.815 94.2757 100.158 94.2757Z" fill="#4E728C"/>
<path d="M79.6313 175.094C79.5396 175.094 79.4479 175.088 79.3542 175.076L75.225 174.526C74.0833 174.374 73.2813 173.328 73.4354 172.186C73.5854 171.044 74.6271 170.242 75.775 170.396L79.9042 170.946C81.0458 171.099 81.8479 172.144 81.6938 173.286C81.5563 174.332 80.6604 175.094 79.6313 175.094Z" fill="#4E728C"/>
<path d="M74.9042 185.33C73.7875 185.33 72.8625 184.442 72.825 183.315C72.7855 182.165 73.6855 181.203 74.8375 181.165L79 181.026C80.148 180.949 81.1146 181.886 81.1521 183.038C81.1917 184.188 80.2917 185.151 79.1396 185.188L74.975 185.328C74.9542 185.33 74.9292 185.33 74.9042 185.33Z" fill="#4E728C"/>
<path d="M76.6021 196.18C75.7083 196.18 74.8833 195.603 74.6104 194.705C74.275 193.605 74.8937 192.44 75.9937 192.105L79.9792 190.888C81.0833 190.542 82.2458 191.172 82.5792 192.272C82.9167 193.372 82.2958 194.536 81.1958 194.872L77.2104 196.088C77.0062 196.151 76.8021 196.18 76.6021 196.18Z" fill="#4E728C"/>
<path d="M81.9 206.094C81.3146 206.094 80.7313 205.849 80.3188 205.367C79.5709 204.494 79.6688 203.178 80.5417 202.43L83.7042 199.715C84.575 198.969 85.8896 199.065 86.6417 199.938C87.3896 200.811 87.2917 202.128 86.4188 202.876L83.2563 205.59C82.8646 205.928 82.3813 206.094 81.9 206.094Z" fill="#4E728C"/>
<path d="M174.023 116.232C173.981 116.232 173.942 116.23 173.9 116.228L169.742 115.988C168.592 115.924 167.715 114.938 167.783 113.788C167.848 112.64 168.84 111.765 169.983 111.83L174.142 112.069C175.292 112.134 176.169 113.119 176.1 114.269C176.035 115.376 175.117 116.232 174.023 116.232Z" fill="#4E728C"/>
<path d="M169.481 105.98C168.467 105.98 167.579 105.24 167.423 104.205C167.252 103.067 168.038 102.005 169.175 101.834L173.296 101.215C174.438 101.065 175.496 101.832 175.667 102.967C175.838 104.105 175.052 105.167 173.915 105.338L169.794 105.957C169.688 105.972 169.583 105.98 169.481 105.98Z" fill="#4E728C"/>
<path d="M166.615 96.6861C165.865 96.6861 165.14 96.2819 164.767 95.5694C164.231 94.5527 164.627 93.2923 165.646 92.7569L169.335 90.8215C170.352 90.2881 171.613 90.6798 172.148 91.7006C172.683 92.7173 172.288 93.9777 171.269 94.5131L167.579 96.4486C167.271 96.609 166.94 96.6861 166.615 96.6861Z" fill="#4E728C"/>
<path d="M160.471 89.5673C160.054 89.5673 159.633 89.4423 159.267 89.1819C158.329 88.5152 158.108 87.2152 158.775 86.2757L161.187 82.8777C161.854 81.9402 163.152 81.7173 164.094 82.3861C165.031 83.0527 165.252 84.3527 164.585 85.2923L162.173 88.6902C161.765 89.2611 161.123 89.5673 160.471 89.5673Z" fill="#4E728C"/>
</svg>
