<svg width="250" height="250" viewBox="0 0 250 250" fill="none" xmlns="http://www.w3.org/2000/svg">
<path d="M107.932 25.5257C107.932 27.0891 107.345 28.3131 106.173 29.1977C105 30.0823 103.272 30.5246 100.989 30.5246C100.125 30.5246 99.3226 30.4629 98.5821 30.3394C97.8415 30.216 97.2038 30.0309 96.6689 29.784C96.1546 29.5166 95.7432 29.1874 95.4346 28.7966C95.1466 28.4057 95.0026 27.9429 95.0026 27.408C95.0026 26.9143 95.1055 26.5029 95.3112 26.1737C95.5169 25.824 95.7638 25.536 96.0518 25.3097C96.6484 25.6389 97.3272 25.9371 98.0884 26.2046C98.8701 26.4514 99.7649 26.5749 100.773 26.5749C101.411 26.5749 101.894 26.4823 102.223 26.2971C102.573 26.112 102.748 25.8651 102.748 25.5566C102.748 25.2686 102.624 25.0423 102.377 24.8777C102.131 24.7131 101.719 24.5794 101.143 24.4766L100.217 24.2914C98.4278 23.9417 97.0906 23.3966 96.2061 22.656C95.3421 21.8949 94.9101 20.8149 94.9101 19.416C94.9101 18.6549 95.0746 17.9657 95.4038 17.3486C95.7329 16.7314 96.1958 16.2171 96.7924 15.8057C97.3889 15.3943 98.0986 15.0754 98.9215 14.8491C99.7649 14.6229 100.691 14.5097 101.699 14.5097C102.46 14.5097 103.169 14.5714 103.828 14.6949C104.507 14.7977 105.093 14.9623 105.587 15.1886C106.08 15.4149 106.471 15.7131 106.759 16.0834C107.047 16.4331 107.191 16.8549 107.191 17.3486C107.191 17.8217 107.099 18.2331 106.913 18.5829C106.749 18.912 106.533 19.1897 106.265 19.416C106.101 19.3131 105.854 19.2103 105.525 19.1074C105.196 18.984 104.836 18.8811 104.445 18.7989C104.054 18.696 103.653 18.6137 103.241 18.552C102.851 18.4903 102.491 18.4594 102.161 18.4594C101.483 18.4594 100.958 18.5417 100.588 18.7063C100.217 18.8503 100.032 19.0869 100.032 19.416C100.032 19.6423 100.135 19.8274 100.341 19.9714C100.547 20.1154 100.937 20.2491 101.513 20.3726L102.47 20.5886C104.445 21.0411 105.844 21.6686 106.667 22.4709C107.51 23.2526 107.932 24.2709 107.932 25.5257ZM117.187 26.6674C117.537 26.6674 117.918 26.6366 118.329 26.5749C118.761 26.4926 119.08 26.3897 119.286 26.2663V23.7977L117.064 23.9829C116.488 24.024 116.015 24.1474 115.645 24.3531C115.274 24.5589 115.089 24.8674 115.089 25.2789C115.089 25.6903 115.243 26.0297 115.552 26.2971C115.881 26.544 116.426 26.6674 117.187 26.6674ZM116.941 14.5406C118.051 14.5406 119.059 14.6537 119.965 14.88C120.89 15.1063 121.672 15.456 122.31 15.9291C122.968 16.3817 123.472 16.968 123.822 17.688C124.171 18.3874 124.346 19.2206 124.346 20.1874V27.0994C124.346 27.6343 124.192 28.0766 123.883 28.4263C123.595 28.7554 123.246 29.0434 122.834 29.2903C121.497 30.0926 119.615 30.4937 117.187 30.4937C116.097 30.4937 115.11 30.3909 114.225 30.1851C113.361 29.9794 112.61 29.6709 111.973 29.2594C111.355 28.848 110.872 28.3234 110.522 27.6857C110.193 27.048 110.029 26.3074 110.029 25.464C110.029 24.0446 110.45 22.9543 111.294 22.1931C112.137 21.432 113.443 20.9589 115.213 20.7737L119.255 20.3417V20.1257C119.255 19.5291 118.987 19.1074 118.453 18.8606C117.938 18.5931 117.187 18.4594 116.2 18.4594C115.418 18.4594 114.657 18.5417 113.917 18.7063C113.176 18.8709 112.507 19.0766 111.911 19.3234C111.643 19.1383 111.417 18.8606 111.232 18.4903C111.047 18.0994 110.954 17.6983 110.954 17.2869C110.954 16.752 111.078 16.3303 111.325 16.0217C111.592 15.6926 111.993 15.4149 112.528 15.1886C113.125 14.9623 113.824 14.7977 114.626 14.6949C115.449 14.592 116.221 14.5406 116.941 14.5406ZM140.205 25.5257C140.205 27.0891 139.619 28.3131 138.446 29.1977C137.274 30.0823 135.546 30.5246 133.262 30.5246C132.398 30.5246 131.596 30.4629 130.856 30.3394C130.115 30.216 129.477 30.0309 128.942 29.784C128.428 29.5166 128.017 29.1874 127.708 28.7966C127.42 28.4057 127.276 27.9429 127.276 27.408C127.276 26.9143 127.379 26.5029 127.585 26.1737C127.79 25.824 128.037 25.536 128.325 25.3097C128.922 25.6389 129.601 25.9371 130.362 26.2046C131.144 26.4514 132.038 26.5749 133.046 26.5749C133.684 26.5749 134.168 26.4823 134.497 26.2971C134.846 26.112 135.021 25.8651 135.021 25.5566C135.021 25.2686 134.898 25.0423 134.651 24.8777C134.404 24.7131 133.993 24.5794 133.417 24.4766L132.491 24.2914C130.701 23.9417 129.364 23.3966 128.48 22.656C127.616 21.8949 127.184 20.8149 127.184 19.416C127.184 18.6549 127.348 17.9657 127.677 17.3486C128.006 16.7314 128.469 16.2171 129.066 15.8057C129.662 15.3943 130.372 15.0754 131.195 14.8491C132.038 14.6229 132.964 14.5097 133.972 14.5097C134.733 14.5097 135.443 14.5714 136.101 14.6949C136.78 14.7977 137.366 14.9623 137.86 15.1886C138.354 15.4149 138.745 15.7131 139.033 16.0834C139.321 16.4331 139.465 16.8549 139.465 17.3486C139.465 17.8217 139.372 18.2331 139.187 18.5829C139.022 18.912 138.806 19.1897 138.539 19.416C138.374 19.3131 138.128 19.2103 137.798 19.1074C137.469 18.984 137.109 18.8811 136.718 18.7989C136.328 18.696 135.926 18.6137 135.515 18.552C135.124 18.4903 134.764 18.4594 134.435 18.4594C133.756 18.4594 133.232 18.5417 132.861 18.7063C132.491 18.8503 132.306 19.0869 132.306 19.416C132.306 19.6423 132.409 19.8274 132.614 19.9714C132.82 20.1154 133.211 20.2491 133.787 20.3726L134.744 20.5886C136.718 21.0411 138.117 21.6686 138.94 22.4709C139.784 23.2526 140.205 24.2709 140.205 25.5257ZM155.393 25.5257C155.393 27.0891 154.806 28.3131 153.634 29.1977C152.461 30.0823 150.733 30.5246 148.45 30.5246C147.586 30.5246 146.784 30.4629 146.043 30.3394C145.302 30.216 144.665 30.0309 144.13 29.784C143.616 29.5166 143.204 29.1874 142.896 28.7966C142.608 28.4057 142.464 27.9429 142.464 27.408C142.464 26.9143 142.566 26.5029 142.772 26.1737C142.978 25.824 143.225 25.536 143.513 25.3097C144.109 25.6389 144.788 25.9371 145.549 26.2046C146.331 26.4514 147.226 26.5749 148.234 26.5749C148.872 26.5749 149.355 26.4823 149.684 26.2971C150.034 26.112 150.209 25.8651 150.209 25.5566C150.209 25.2686 150.085 25.0423 149.838 24.8777C149.592 24.7131 149.18 24.5794 148.604 24.4766L147.678 24.2914C145.889 23.9417 144.552 23.3966 143.667 22.656C142.803 21.8949 142.371 20.8149 142.371 19.416C142.371 18.6549 142.536 17.9657 142.865 17.3486C143.194 16.7314 143.657 16.2171 144.253 15.8057C144.85 15.3943 145.56 15.0754 146.382 14.8491C147.226 14.6229 148.152 14.5097 149.16 14.5097C149.921 14.5097 150.63 14.5714 151.289 14.6949C151.968 14.7977 152.554 14.9623 153.048 15.1886C153.541 15.4149 153.932 15.7131 154.22 16.0834C154.508 16.4331 154.652 16.8549 154.652 17.3486C154.652 17.8217 154.56 18.2331 154.374 18.5829C154.21 18.912 153.994 19.1897 153.726 19.416C153.562 19.3131 153.315 19.2103 152.986 19.1074C152.657 18.984 152.297 18.8811 151.906 18.7989C151.515 18.696 151.114 18.6137 150.702 18.552C150.312 18.4903 149.952 18.4594 149.622 18.4594C148.944 18.4594 148.419 18.5417 148.049 18.7063C147.678 18.8503 147.493 19.0869 147.493 19.416C147.493 19.6423 147.596 19.8274 147.802 19.9714C148.008 20.1154 148.398 20.2491 148.974 20.3726L149.931 20.5886C151.906 21.0411 153.305 21.6686 154.128 22.4709C154.971 23.2526 155.393 24.2709 155.393 25.5257Z" fill="#4E728C"/>
<path d="M202 44H50C36.76 44 26 54.76 26 68V220C26 233.24 36.76 244 50 244H202C215.24 244 226 233.24 226 220V68C226 54.76 215.24 44 202 44Z" fill="#FF88EC"/>
<path d="M124.493 44.0585H202.495C214.645 44.0585 224.495 53.9083 224.495 66.0585V222.063C224.495 234.213 214.645 244.063 202.495 244.063H124.493V44.0585Z" fill="#F8AEF9"/>
<path d="M202.696 248H47.308C32.804 248 21 236.196 21 221.692V66.308C21 51.804 32.804 40 47.308 40H202.696C217.2 40 229 51.8 229 66.304V221.7C229 236.2 217.2 248 202.696 248ZM47.308 48C37.212 48 29 56.212 29 66.308V221.692C29 231.788 37.212 240 47.308 240H202.696C212.788 240 221 231.788 221 221.696V66.304C221 56.212 212.788 48 202.696 48H47.308Z" fill="#4E728C"/>
<path d="M62.8473 134.606L67.352 142.837L75.5828 147.341L67.352 151.846L62.8473 160.077L58.3427 151.846L50.1119 147.341L58.3427 142.837L62.8473 134.606ZM179.293 196.464L182.48 202.322L188.382 205.568L182.48 208.755L179.293 214.657L176.047 208.755L170.189 205.568L176.047 202.322L179.293 196.464ZM197.493 109.135L199.426 112.635L202.937 114.586L199.422 116.511L197.493 120.051L195.536 116.511L192.021 114.586L195.536 112.635L197.493 109.135Z" fill="#FFF8F8"/>
<path d="M65 54.2049C62.792 54.2049 61 55.9969 61 58.2049V66.2049C61 68.4129 62.792 70.2049 65 70.2049C67.208 70.2049 69 68.4129 69 66.2049V58.2049C69 55.9969 67.208 54.2049 65 54.2049ZM45 54.2049C42.792 54.2049 41 55.9969 41 58.2049V66.2049C41 68.4129 42.792 70.2049 45 70.2049C47.208 70.2049 49 68.4129 49 66.2049V58.2049C49 55.9969 47.208 54.2049 45 54.2049ZM125 54.2049C122.792 54.2049 121 55.9969 121 58.2049V66.2049C121 68.4129 122.792 70.2049 125 70.2049C127.208 70.2049 129 68.4129 129 66.2049V58.2049C129 55.9969 127.208 54.2049 125 54.2049ZM145 54.2049C142.792 54.2049 141 55.9969 141 58.2049V66.2049C141 68.4129 142.792 70.2049 145 70.2049C147.208 70.2049 149 68.4129 149 66.2049V58.2049C149 55.9969 147.208 54.2049 145 54.2049ZM165 54.2049C162.792 54.2049 161 55.9969 161 58.2049V66.2049C161 68.4129 162.792 70.2049 165 70.2049C167.208 70.2049 169 68.4129 169 66.2049V58.2049C169 55.9969 167.208 54.2049 165 54.2049ZM185 54.2049C182.792 54.2049 181 55.9969 181 58.2049V66.2049C181 68.4129 182.792 70.2049 185 70.2049C187.208 70.2049 189 68.4129 189 66.2049V58.2049C189 55.9969 187.208 54.2049 185 54.2049ZM205 54.2049C202.792 54.2049 201 55.9969 201 58.2049V66.2049C201 68.4129 202.792 70.2049 205 70.2049C207.208 70.2049 209 68.4129 209 66.2049V58.2049C209 55.9969 207.208 54.2049 205 54.2049ZM85 54.2049C82.792 54.2049 81 55.9969 81 58.2049V66.2049C81 68.4129 82.792 70.2049 85 70.2049C87.208 70.2049 89 68.4129 89 66.2049V58.2049C89 55.9969 87.208 54.2049 85 54.2049ZM105 54.2049C102.792 54.2049 101 55.9969 101 58.2049V66.2049C101 68.4129 102.792 70.2049 105 70.2049C107.208 70.2049 109 68.4129 109 66.2049V58.2049C109 55.9969 107.208 54.2049 105 54.2049Z" fill="#4E728C"/>
<path d="M128.5 90C163.019 90 191 117.981 191 152.5C191 187.016 163.019 215 128.5 215C93.9838 215 66 187.019 66 152.5C66.0031 117.981 93.9838 90 128.5 90Z" fill="#FF55AA"/>
<path d="M128.5 90C163.019 90 191 117.981 191 152.5C191 187.016 163.019 215 128.5 215C93.9838 215 66 187.019 66 152.5C66.0031 117.981 93.9838 90 128.5 90Z" stroke="#4E728C"/>
<path fill-rule="evenodd" clip-rule="evenodd" d="M167.704 116.75C164.873 105.649 146.469 102 129.051 108.188C118.686 111.871 107.462 117.652 99.3919 125.199C89.7968 134.174 88.2686 141.984 88.898 145.247C91.1214 156.762 106.901 164.29 113.387 169.877V169.912C111.474 170.854 97.4754 177.938 94.1998 185.181C90.7425 192.822 94.7509 198.306 97.4034 199.045C105.624 201.331 114.057 197.219 118.592 190.458C122.966 183.932 122.603 175.508 120.702 171.315C123.323 170.622 126.383 170.312 130.266 170.767C141.23 172.047 143.381 178.893 142.968 181.758C142.558 184.624 140.256 186.199 139.489 186.675C138.718 187.151 138.487 187.317 138.549 187.668C138.643 188.181 138.997 188.162 139.655 188.053C140.557 187.899 145.41 185.723 145.62 180.434C145.883 173.72 139.451 166.21 128.058 166.404C123.367 166.486 120.417 166.93 118.285 167.726C118.128 167.547 117.965 167.369 117.802 167.19C110.76 159.674 97.7385 154.36 98.2896 144.258C98.49 140.584 99.7677 130.914 123.308 119.183C142.592 109.572 158.031 112.219 160.699 118.078C164.51 126.452 152.447 142.012 132.421 144.258C124.789 145.113 120.771 142.156 119.772 141.054C118.72 139.895 118.563 139.842 118.172 140.061C117.533 140.415 117.937 141.439 118.172 142.05C118.77 143.606 121.225 146.365 125.406 147.74C129.086 148.949 138.045 149.61 148.88 145.42C161.012 140.722 170.488 127.663 167.704 116.75ZM116.08 173.319C116.988 176.682 116.888 179.82 115.952 182.66C115.848 182.977 115.732 183.287 115.607 183.597C115.482 183.903 115.347 184.21 115.203 184.511C114.48 186.014 113.506 187.42 112.316 188.72C108.683 192.681 103.61 194.178 101.437 192.916C99.0882 191.554 100.266 185.97 104.474 181.517C109.003 176.729 115.52 173.651 115.52 173.651L115.51 173.632C115.698 173.529 115.889 173.425 116.08 173.319Z" fill="#FFF8F8"/>
</svg>
