<svg width="250" height="250" viewBox="0 0 250 250" fill="none" xmlns="http://www.w3.org/2000/svg">
<path d="M58.67 24.8469C58.67 25.3817 58.8346 25.7623 59.1637 25.9886C59.5135 26.2149 59.9969 26.328 60.614 26.328C60.9226 26.328 61.2415 26.3074 61.5706 26.2663C61.8997 26.2046 62.1877 26.1326 62.4346 26.0503C62.6197 26.2766 62.774 26.5337 62.8975 26.8217C63.0415 27.0891 63.1135 27.4183 63.1135 27.8091C63.1135 28.5909 62.8152 29.2286 62.2186 29.7223C61.6426 30.216 60.614 30.4629 59.1329 30.4629C57.3226 30.4629 55.9237 30.0514 54.9363 29.2286C53.9695 28.4057 53.486 27.0686 53.486 25.2171V12.0103C53.7123 11.9486 54.0312 11.8869 54.4426 11.8251C54.8746 11.7429 55.3272 11.7017 55.8003 11.7017C56.7055 11.7017 57.4049 11.8663 57.8986 12.1954C58.4129 12.504 58.67 13.1726 58.67 14.2011V16.176H62.7123C62.8357 16.4023 62.9489 16.6903 63.0517 17.04C63.1752 17.3691 63.2369 17.7394 63.2369 18.1509C63.2369 18.8709 63.0723 19.3954 62.7432 19.7246C62.4346 20.0331 62.0129 20.1874 61.478 20.1874H58.67V24.8469ZM68.1244 26.1737C67.8981 25.6594 67.6512 25.0834 67.3838 24.4457C67.1369 23.808 66.8695 23.0777 66.5815 22.2549C66.3141 21.432 66.0261 20.496 65.7175 19.4469C65.4295 18.3771 65.1209 17.1531 64.7918 15.7749C65.0798 15.4869 65.4604 15.24 65.9335 15.0343C66.4272 14.808 66.9621 14.6949 67.5381 14.6949C68.2581 14.6949 68.8547 14.8491 69.3278 15.1577C69.8009 15.4457 70.1507 16.0011 70.3769 16.824L72.8147 25.3097H72.9381C73.1849 24.6103 73.4215 23.8491 73.6478 23.0263C73.8947 22.2034 74.1312 21.36 74.3575 20.496C74.5838 19.6114 74.7895 18.7371 74.9747 17.8731C75.1804 16.9886 75.3552 16.1246 75.4992 15.2811C76.2398 14.8903 77.0524 14.6949 77.9369 14.6949C78.6569 14.6949 79.2535 14.8491 79.7267 15.1577C80.1998 15.4663 80.4364 16.0011 80.4364 16.7623C80.4364 17.3177 80.3644 17.9657 80.2204 18.7063C80.0764 19.4263 79.8809 20.1977 79.6341 21.0206C79.4078 21.8434 79.1301 22.6971 78.8009 23.5817C78.4924 24.4457 78.1632 25.2994 77.8135 26.1429C77.4638 26.9863 77.1038 27.7886 76.7335 28.5497C76.3632 29.2903 76.0032 29.9589 75.6535 30.5554C75.0775 31.5634 74.5427 32.3863 74.0489 33.024C73.5552 33.6617 73.0821 34.1554 72.6295 34.5051C72.1769 34.8754 71.7244 35.1223 71.2718 35.2457C70.8192 35.3897 70.3461 35.4617 69.8524 35.4617C68.9884 35.4617 68.2889 35.2046 67.7541 34.6903C67.2192 34.176 66.9004 33.5074 66.7975 32.6846C67.4558 32.1703 68.1141 31.5943 68.7724 30.9566C69.4307 30.3394 70.0272 29.7017 70.5621 29.0434C70.2124 28.9406 69.8318 28.704 69.4204 28.3337C69.0295 27.9429 68.5975 27.2229 68.1244 26.1737ZM89.445 14.5406C90.6793 14.5406 91.821 14.7051 92.8701 15.0343C93.9398 15.3429 94.8553 15.8263 95.6164 16.4846C96.3775 17.1429 96.9741 17.976 97.4061 18.984C97.8381 19.9714 98.0541 21.1543 98.0541 22.5326C98.0541 23.8491 97.869 25.0011 97.4987 25.9886C97.1284 26.976 96.6038 27.8091 95.925 28.488C95.2461 29.1463 94.4233 29.64 93.4564 29.9691C92.5101 30.2983 91.4507 30.4629 90.2781 30.4629C89.3935 30.4629 88.5707 30.3291 87.8095 30.0617V35.184C87.6038 35.2457 87.2747 35.3074 86.8221 35.3691C86.3695 35.4514 85.9067 35.4926 85.4335 35.4926C84.981 35.4926 84.5695 35.4617 84.1993 35.4C83.8495 35.3383 83.5513 35.2149 83.3044 35.0297C83.0575 34.8446 82.8724 34.5874 82.749 34.2583C82.6255 33.9497 82.5638 33.5383 82.5638 33.024V18.2126C82.5638 17.6571 82.677 17.2046 82.9033 16.8549C83.1501 16.5051 83.4793 16.1863 83.8907 15.8983C84.5284 15.4869 85.3204 15.1577 86.2667 14.9109C87.213 14.664 88.2724 14.5406 89.445 14.5406ZM89.5067 26.328C91.6255 26.328 92.685 25.0629 92.685 22.5326C92.685 21.216 92.4175 20.2389 91.8827 19.6011C91.3684 18.9634 90.6175 18.6446 89.6301 18.6446C89.2393 18.6446 88.8895 18.696 88.581 18.7989C88.2724 18.8811 88.005 18.984 87.7787 19.1074V25.896C88.0255 26.0194 88.293 26.1223 88.581 26.2046C88.869 26.2869 89.1775 26.328 89.5067 26.328ZM108.544 30.4937C107.331 30.4937 106.199 30.3291 105.15 30C104.121 29.6503 103.216 29.136 102.435 28.4571C101.673 27.7783 101.067 26.9246 100.614 25.896C100.182 24.8674 99.9661 23.664 99.9661 22.2857C99.9661 20.928 100.182 19.7657 100.614 18.7989C101.067 17.8114 101.653 17.0091 102.373 16.392C103.093 15.7543 103.916 15.2914 104.841 15.0034C105.767 14.6949 106.713 14.5406 107.68 14.5406C108.771 14.5406 109.758 14.7051 110.643 15.0343C111.548 15.3634 112.319 15.816 112.957 16.392C113.615 16.968 114.119 17.6571 114.469 18.4594C114.839 19.2617 115.024 20.136 115.024 21.0823C115.024 21.7817 114.829 22.3166 114.438 22.6869C114.047 23.0571 113.502 23.2937 112.803 23.3966L105.181 24.5383C105.407 25.2171 105.87 25.7314 106.569 26.0811C107.269 26.4103 108.071 26.5749 108.976 26.5749C109.82 26.5749 110.612 26.472 111.352 26.2663C112.113 26.04 112.731 25.7829 113.204 25.4949C113.533 25.7006 113.811 25.9886 114.037 26.3589C114.263 26.7291 114.376 27.12 114.376 27.5314C114.376 28.4571 113.944 29.1463 113.08 29.5989C112.422 29.9486 111.681 30.1851 110.859 30.3086C110.036 30.432 109.264 30.4937 108.544 30.4937ZM107.68 18.3669C107.187 18.3669 106.755 18.4491 106.384 18.6137C106.035 18.7783 105.747 18.9943 105.52 19.2617C105.294 19.5086 105.119 19.7966 104.996 20.1257C104.893 20.4343 104.831 20.7531 104.811 21.0823L110.087 20.2183C110.025 19.8069 109.799 19.3954 109.408 18.984C109.017 18.5726 108.441 18.3669 107.68 18.3669ZM130.201 25.5257C130.201 27.0891 129.614 28.3131 128.442 29.1977C127.269 30.0823 125.541 30.5246 123.258 30.5246C122.394 30.5246 121.592 30.4629 120.851 30.3394C120.11 30.216 119.473 30.0309 118.938 29.784C118.424 29.5166 118.012 29.1874 117.704 28.7966C117.416 28.4057 117.272 27.9429 117.272 27.408C117.272 26.9143 117.374 26.5029 117.58 26.1737C117.786 25.824 118.033 25.536 118.321 25.3097C118.917 25.6389 119.596 25.9371 120.357 26.2046C121.139 26.4514 122.034 26.5749 123.042 26.5749C123.68 26.5749 124.163 26.4823 124.492 26.2971C124.842 26.112 125.017 25.8651 125.017 25.5566C125.017 25.2686 124.893 25.0423 124.646 24.8777C124.4 24.7131 123.988 24.5794 123.412 24.4766L122.486 24.2914C120.697 23.9417 119.36 23.3966 118.475 22.656C117.611 21.8949 117.179 20.8149 117.179 19.416C117.179 18.6549 117.344 17.9657 117.673 17.3486C118.002 16.7314 118.465 16.2171 119.061 15.8057C119.658 15.3943 120.368 15.0754 121.19 14.8491C122.034 14.6229 122.96 14.5097 123.968 14.5097C124.729 14.5097 125.438 14.5714 126.097 14.6949C126.776 14.7977 127.362 14.9623 127.856 15.1886C128.349 15.4149 128.74 15.7131 129.028 16.0834C129.316 16.4331 129.46 16.8549 129.46 17.3486C129.46 17.8217 129.368 18.2331 129.182 18.5829C129.018 18.912 128.802 19.1897 128.534 19.416C128.37 19.3131 128.123 19.2103 127.794 19.1074C127.465 18.984 127.105 18.8811 126.714 18.7989C126.323 18.696 125.922 18.6137 125.51 18.552C125.12 18.4903 124.76 18.4594 124.43 18.4594C123.752 18.4594 123.227 18.5417 122.857 18.7063C122.486 18.8503 122.301 19.0869 122.301 19.416C122.301 19.6423 122.404 19.8274 122.61 19.9714C122.816 20.1154 123.206 20.2491 123.782 20.3726L124.739 20.5886C126.714 21.0411 128.113 21.6686 128.936 22.4709C129.779 23.2526 130.201 24.2709 130.201 25.5257ZM141.342 18.6754C140.828 18.6754 140.334 18.7577 139.861 18.9223C139.409 19.0869 139.008 19.3337 138.658 19.6629C138.329 19.9714 138.061 20.3623 137.856 20.8354C137.65 21.3086 137.547 21.864 137.547 22.5017C137.547 23.7771 137.907 24.7337 138.627 25.3714C139.368 26.0091 140.262 26.328 141.312 26.328C141.929 26.328 142.464 26.256 142.916 26.112C143.369 25.968 143.77 25.8137 144.12 25.6491C144.531 25.9371 144.84 26.256 145.045 26.6057C145.251 26.9349 145.354 27.336 145.354 27.8091C145.354 28.6526 144.953 29.3109 144.15 29.784C143.348 30.2366 142.237 30.4629 140.818 30.4629C139.522 30.4629 138.349 30.2777 137.3 29.9074C136.251 29.5166 135.346 28.9817 134.585 28.3029C133.844 27.6034 133.268 26.7703 132.857 25.8034C132.445 24.8366 132.239 23.7669 132.239 22.5943C132.239 21.2366 132.455 20.0537 132.887 19.0457C133.34 18.0171 133.947 17.1737 134.708 16.5154C135.469 15.8571 136.344 15.3634 137.331 15.0343C138.339 14.7051 139.398 14.5406 140.509 14.5406C141.99 14.5406 143.132 14.808 143.934 15.3429C144.737 15.8777 145.138 16.5669 145.138 17.4103C145.138 17.8011 145.045 18.1714 144.86 18.5211C144.675 18.8503 144.459 19.1383 144.212 19.3851C143.862 19.2206 143.441 19.0663 142.947 18.9223C142.453 18.7577 141.918 18.6754 141.342 18.6754ZM153.23 29.9691C153.025 30.0309 152.695 30.0926 152.243 30.1543C151.811 30.216 151.358 30.2469 150.885 30.2469C150.433 30.2469 150.021 30.216 149.651 30.1543C149.301 30.0926 149.003 29.9691 148.756 29.784C148.509 29.5989 148.314 29.352 148.17 29.0434C148.046 28.7143 147.985 28.2926 147.985 27.7783V18.5211C147.985 18.048 148.067 17.6469 148.231 17.3177C148.417 16.968 148.674 16.6594 149.003 16.392C149.332 16.1246 149.733 15.888 150.206 15.6823C150.7 15.456 151.225 15.2606 151.78 15.096C152.335 14.9314 152.911 14.808 153.508 14.7257C154.105 14.6229 154.701 14.5714 155.298 14.5714C156.285 14.5714 157.067 14.7669 157.643 15.1577C158.219 15.528 158.507 16.1451 158.507 17.0091C158.507 17.2971 158.466 17.5851 158.383 17.8731C158.301 18.1406 158.198 18.3874 158.075 18.6137C157.643 18.6137 157.201 18.6343 156.748 18.6754C156.295 18.7166 155.853 18.7783 155.421 18.8606C154.989 18.9429 154.578 19.0354 154.187 19.1383C153.817 19.2206 153.498 19.3234 153.23 19.4469V29.9691ZM160.548 10.8377C160.548 10.056 160.805 9.39771 161.319 8.86285C161.854 8.328 162.553 8.06057 163.417 8.06057C164.281 8.06057 164.97 8.328 165.485 8.86285C166.02 9.39771 166.287 10.056 166.287 10.8377C166.287 11.6194 166.02 12.2777 165.485 12.8126C164.97 13.3474 164.281 13.6149 163.417 13.6149C162.553 13.6149 161.854 13.3474 161.319 12.8126C160.805 12.2777 160.548 11.6194 160.548 10.8377ZM166.04 29.9691C165.814 30.0103 165.474 30.0617 165.022 30.1234C164.59 30.2057 164.148 30.2469 163.695 30.2469C163.242 30.2469 162.831 30.216 162.461 30.1543C162.111 30.0926 161.813 29.9691 161.566 29.784C161.319 29.5989 161.124 29.352 160.98 29.0434C160.856 28.7143 160.794 28.2926 160.794 27.7783V15.2194C161.021 15.1783 161.35 15.1269 161.782 15.0651C162.234 14.9829 162.687 14.9417 163.14 14.9417C163.592 14.9417 163.993 14.9726 164.343 15.0343C164.713 15.096 165.022 15.2194 165.269 15.4046C165.516 15.5897 165.701 15.8469 165.824 16.176C165.968 16.4846 166.04 16.896 166.04 17.4103V29.9691ZM176.261 14.5406C177.495 14.5406 178.637 14.7051 179.686 15.0343C180.756 15.3429 181.671 15.8263 182.432 16.4846C183.193 17.1429 183.79 17.976 184.222 18.984C184.654 19.9714 184.87 21.1543 184.87 22.5326C184.87 23.8491 184.685 25.0011 184.315 25.9886C183.944 26.976 183.42 27.8091 182.741 28.488C182.062 29.1463 181.239 29.64 180.272 29.9691C179.326 30.2983 178.267 30.4629 177.094 30.4629C176.209 30.4629 175.387 30.3291 174.625 30.0617V35.184C174.42 35.2457 174.091 35.3074 173.638 35.3691C173.185 35.4514 172.723 35.4926 172.249 35.4926C171.797 35.4926 171.385 35.4617 171.015 35.4C170.665 35.3383 170.367 35.2149 170.12 35.0297C169.873 34.8446 169.688 34.5874 169.565 34.2583C169.441 33.9497 169.38 33.5383 169.38 33.024V18.2126C169.38 17.6571 169.493 17.2046 169.719 16.8549C169.966 16.5051 170.295 16.1863 170.707 15.8983C171.344 15.4869 172.136 15.1577 173.083 14.9109C174.029 14.664 175.088 14.5406 176.261 14.5406ZM176.323 26.328C178.441 26.328 179.501 25.0629 179.501 22.5326C179.501 21.216 179.233 20.2389 178.699 19.6011C178.184 18.9634 177.433 18.6446 176.446 18.6446C176.055 18.6446 175.705 18.696 175.397 18.7989C175.088 18.8811 174.821 18.984 174.595 19.1074V25.896C174.841 26.0194 175.109 26.1223 175.397 26.2046C175.685 26.2869 175.993 26.328 176.323 26.328ZM192.676 24.8469C192.676 25.3817 192.84 25.7623 193.169 25.9886C193.519 26.2149 194.002 26.328 194.62 26.328C194.928 26.328 195.247 26.3074 195.576 26.2663C195.905 26.2046 196.193 26.1326 196.44 26.0503C196.625 26.2766 196.78 26.5337 196.903 26.8217C197.047 27.0891 197.119 27.4183 197.119 27.8091C197.119 28.5909 196.821 29.2286 196.224 29.7223C195.648 30.216 194.62 30.4629 193.138 30.4629C191.328 30.4629 189.929 30.0514 188.942 29.2286C187.975 28.4057 187.492 27.0686 187.492 25.2171V12.0103C187.718 11.9486 188.037 11.8869 188.448 11.8251C188.88 11.7429 189.333 11.7017 189.806 11.7017C190.711 11.7017 191.41 11.8663 191.904 12.1954C192.418 12.504 192.676 13.1726 192.676 14.2011V16.176H196.718C196.841 16.4023 196.954 16.6903 197.057 17.04C197.181 17.3691 197.242 17.7394 197.242 18.1509C197.242 18.8709 197.078 19.3954 196.749 19.7246C196.44 20.0331 196.018 20.1874 195.484 20.1874H192.676V24.8469Z" fill="#4E728C"/>
<path d="M202 44H50C36.76 44 26 54.76 26 68V220C26 233.24 36.76 244 50 244H202C215.24 244 226 233.24 226 220V68C226 54.76 215.24 44 202 44Z" fill="#87ADD6"/>
<path d="M124.493 44.0585H202.495C214.645 44.0585 224.495 53.9083 224.495 66.0585V222.063C224.495 234.213 214.645 244.063 202.495 244.063H124.493V44.0585Z" fill="#A1C3E8"/>
<path d="M202.696 248H47.308C32.804 248 21 236.196 21 221.692V66.308C21 51.804 32.804 40 47.308 40H202.696C217.2 40 229 51.8 229 66.304V221.7C229 236.2 217.2 248 202.696 248ZM47.308 48C37.212 48 29 56.212 29 66.308V221.692C29 231.788 37.212 240 47.308 240H202.696C212.788 240 221 231.788 221 221.696V66.304C221 56.212 212.788 48 202.696 48H47.308Z" fill="#4E728C"/>
<path d="M62.8473 134.606L67.352 142.837L75.5828 147.341L67.352 151.846L62.8473 160.077L58.3427 151.846L50.1119 147.341L58.3427 142.837L62.8473 134.606ZM179.293 196.464L182.48 202.322L188.382 205.568L182.48 208.755L179.293 214.657L176.047 208.755L170.189 205.568L176.047 202.322L179.293 196.464ZM197.493 109.135L199.426 112.635L202.937 114.586L199.422 116.511L197.493 120.051L195.536 116.511L192.021 114.586L195.536 112.635L197.493 109.135Z" fill="#FFF8F8"/>
<path d="M187.76 172.24L183.48 170.36C175.96 167.04 175.28 165.84 175.28 163.32C175.28 161.12 176.88 159.8 179.52 159.8C182.48 159.8 184.56 160.68 187.08 165.24C187.6 166.24 188.52 166.96 189.6 167.2C190.68 167.48 191.84 167.28 192.76 166.68L206.16 157.88C207.92 156.72 208.48 154.44 207.44 152.6C201.32 141.6 192.44 136.48 179.52 136.48C162.6 136.48 150.32 147.92 150.32 163.68C150.32 181.4 162 188.88 173.36 193.84L177.64 195.72C186.08 199.48 187 200.68 187 203.72C187 207.6 183.24 208.4 180.12 208.4C173.92 208.4 170.92 204.2 167.4 198.32C166.84 197.36 165.88 196.68 164.8 196.44C163.76 196.2 162.6 196.44 161.72 197.04L148.2 206.28C146.56 207.4 145.96 209.56 146.84 211.36C153.56 224.84 165.2 232 180.52 232C200.24 232 213 220.8 213 203.52C213 186.68 203.32 179.04 187.76 172.24ZM180.52 224C169.48 224 161.12 219.56 155.72 210.84L162.76 206C166.12 211 171.16 216.4 180.12 216.4C190.4 216.4 195 210.04 195 203.72C195 194.72 188.16 191.64 180.88 188.4L176.6 186.52C163.28 180.72 158.32 174.52 158.32 163.68C158.32 152.2 166.84 144.48 179.52 144.48C188.16 144.48 194.04 147.16 198.48 153.36L191.72 157.8C188.52 153.68 184.64 151.8 179.52 151.8C172.44 151.8 167.28 156.64 167.28 163.32C167.28 171.32 172.88 174.4 180.24 177.68L184.56 179.56C200.04 186.36 205 192.16 205 203.52C205 218.6 192.36 224 180.52 224Z" fill="#4E728C"/>
<path d="M205 203.52C205 218.6 192.36 224 180.52 224C169.48 224 161.12 219.56 155.72 210.84L162.76 206C166.12 211 171.16 216.4 180.12 216.4C190.4 216.4 195 210.04 195 203.72C195 194.72 188.16 191.64 180.88 188.4L176.6 186.52C163.28 180.72 158.32 174.52 158.32 163.68C158.32 152.2 166.84 144.48 179.52 144.48C188.16 144.48 194.04 147.16 198.48 153.36L191.72 157.8C188.52 153.68 184.64 151.8 179.52 151.8C172.44 151.8 167.28 156.64 167.28 163.32C167.28 171.32 172.88 174.4 180.24 177.68L184.56 179.56C200.04 186.36 205 192.16 205 203.52Z" fill="#FAEFDE"/>
<path d="M126.55 137C129.008 137 131 138.985 131 141.443C131 167.041 131 201.959 131 227.557C131 230.015 129.008 232 126.55 232H108.45C105.992 232 104 230.008 104 227.55L104 141.45C104 138.992 105.992 137 108.45 137H126.55Z" fill="#4E728C"/>
<path d="M149 159.55C149 162.008 147.013 164 144.555 164C128.239 164 106.761 164 90.4447 164C87.987 164 86 162.008 86 159.55L86 141.45C86 138.992 87.9923 137 90.45 137L144.55 137C147.008 137 149 138.992 149 141.45L149 159.55Z" fill="#4E728C"/>
<path d="M123 151C123 171.994 123 203.006 123 224H112L112 151H123Z" fill="#FAEFDE"/>
<path d="M143 156C128.62 156 107.38 156 93 156L93 145L143 145L143 156Z" fill="#FAEFDE"/>
<path d="M65 54.2049C62.792 54.2049 61 55.9969 61 58.2049V66.2049C61 68.4129 62.792 70.2049 65 70.2049C67.208 70.2049 69 68.4129 69 66.2049V58.2049C69 55.9969 67.208 54.2049 65 54.2049ZM45 54.2049C42.792 54.2049 41 55.9969 41 58.2049V66.2049C41 68.4129 42.792 70.2049 45 70.2049C47.208 70.2049 49 68.4129 49 66.2049V58.2049C49 55.9969 47.208 54.2049 45 54.2049ZM125 54.2049C122.792 54.2049 121 55.9969 121 58.2049V66.2049C121 68.4129 122.792 70.2049 125 70.2049C127.208 70.2049 129 68.4129 129 66.2049V58.2049C129 55.9969 127.208 54.2049 125 54.2049ZM145 54.2049C142.792 54.2049 141 55.9969 141 58.2049V66.2049C141 68.4129 142.792 70.2049 145 70.2049C147.208 70.2049 149 68.4129 149 66.2049V58.2049C149 55.9969 147.208 54.2049 145 54.2049ZM165 54.2049C162.792 54.2049 161 55.9969 161 58.2049V66.2049C161 68.4129 162.792 70.2049 165 70.2049C167.208 70.2049 169 68.4129 169 66.2049V58.2049C169 55.9969 167.208 54.2049 165 54.2049ZM185 54.2049C182.792 54.2049 181 55.9969 181 58.2049V66.2049C181 68.4129 182.792 70.2049 185 70.2049C187.208 70.2049 189 68.4129 189 66.2049V58.2049C189 55.9969 187.208 54.2049 185 54.2049ZM205 54.2049C202.792 54.2049 201 55.9969 201 58.2049V66.2049C201 68.4129 202.792 70.2049 205 70.2049C207.208 70.2049 209 68.4129 209 66.2049V58.2049C209 55.9969 207.208 54.2049 205 54.2049ZM85 54.2049C82.792 54.2049 81 55.9969 81 58.2049V66.2049C81 68.4129 82.792 70.2049 85 70.2049C87.208 70.2049 89 68.4129 89 66.2049V58.2049C89 55.9969 87.208 54.2049 85 54.2049ZM105 54.2049C102.792 54.2049 101 55.9969 101 58.2049V66.2049C101 68.4129 102.792 70.2049 105 70.2049C107.208 70.2049 109 68.4129 109 66.2049V58.2049C109 55.9969 107.208 54.2049 105 54.2049Z" fill="#4E728C"/>
</svg>
